<svg xmlns="http://www.w3.org/2000/svg" viewBox="0 0 40 40" width="40" height="40">
  <rect width="40" height="40" rx="9" fill="#0b1f3a"/>
  <g transform="translate(0.94,3.47) scale(0.018205)">
    <!-- FXN mark: white letters, emerald slash -->
    <path fill="#ffffff" d="M 1358.99 667.272 C 1361.83 667.245 1367.68 666.845 1369.61 668.497 C 1379.22 676.75 1389.24 685.627 1398.68 693.957 L 1457.83 745.83 L 1615.36 885.42 C 1645.09 911.866 1676.45 940.599 1706.8 965.98 C 1708.35 868.055 1706.93 766.021 1706.93 667.791 L 1816.2 667.679 C 1815.52 720.894 1816.1 775.27 1816.09 828.595 L 1816.15 1149.39 C 1796.66 1149.9 1773.62 1149.94 1754.18 1149.44 L 1511.02 935.659 L 1392.16 832.257 C 1392.92 868.416 1392.32 906.677 1392.32 943 L 1392.33 1149.48 C 1368.01 1150.28 1339.99 1149.65 1315.45 1149.64 L 1171.74 1149.57 C 1130.05 1102.58 1083.48 1050.66 1043.5 1002.72 C 1068.02 975.102 1094.08 947.297 1119.07 919.999 C 1141.82 944.789 1164.69 971.769 1186.84 997.23 L 1282.84 1107.23 L 1282.98 751.234 C 1295.89 735.503 1312.61 718.444 1325.99 702.721 C 1332.05 695.598 1352.93 671.855 1358.99 667.272 z"/>
    <path fill="#ffffff" d="M 332.03 667.835 C 380.984 666.868 432.826 667.687 481.978 667.69 L 719.39 667.753 C 747.048 702.326 783.437 739.38 812.611 774.253 C 769.859 775.23 724.528 774.455 681.473 774.454 L 435.771 774.359 C 432.879 801.463 428.889 829.169 426.527 856.25 L 676.659 856.181 L 715.244 856.302 C 704.957 887.9 694.183 926.536 684.793 958.864 L 414.205 958.769 C 405.825 1021.09 398.447 1086.94 391.224 1149.48 C 354.941 1150.44 314.799 1149.64 278.21 1149.67 L 332.03 667.835 z"/>
    <path fill="#10b981" d="M 1159.26 667.926 C 1175.77 667.153 1197.4 667.837 1214.56 667.84 L 1320.53 668.039 C 1303.97 685.117 1285.74 705.928 1269.25 723.729 L 1153.4 848.432 L 876.798 1144.32 L 871.49 1149.76 C 822.95 1148.91 770.623 1151.17 722.606 1149.12 C 737.51 1130.9 758.003 1109.46 774.253 1091.57 L 858.994 997.85 L 1159.26 667.926 z"/>
    <path fill="#ffffff" d="M 751.455 667.81 C 798.961 667.214 847.588 667.705 895.18 667.68 C 933.23 705.269 977.547 755.019 1013.65 794.724 C 1000.57 807.852 987.407 822.615 974.79 836.308 L 939.697 874.917 C 878.064 806.105 812.022 737.113 751.455 667.81 z"/>
  </g>
</svg>
