<svg fill="#0b1f3a" xmlns="http://www.w3.org/2000/svg" xml:space="preserve" id="digital-home-design" x="0" y="0" style="enable-background:new 0 0 320 320" version="1.1" viewBox="0 0 320 320">
  <g>
    <g>
      <g>
        <g>
          <path d="M142.3340149,274.5515442c-1.0751953,0-2.1513672-0.2783203-3.1113281-0.8359375l-31.9404221-18.5498047
					c-1.9003906-1.1044922-3.0810547-3.15625-3.0810547-5.3544922v-37.2998047c0-0.1933594,0.15625-0.3496094,0.3496094-0.3496094
					s0.3496094,0.15625,0.3496094,0.3496094v37.2998047c0,1.9501953,1.0478516,3.7695312,2.7333984,4.7490234l31.9404221,18.5498047
					c1.7021484,0.9892578,3.8164062,0.9912109,5.5205078,0l76.7998047-44.6308594
					c0.1679688-0.0976562,0.3808594-0.0410156,0.4785156,0.1269531c0.0966797,0.1669922,0.0400391,0.3808594-0.1269531,0.4785156
					l-76.7998047,44.6308594C144.4863586,274.2732239,143.4101868,274.5515442,142.3340149,274.5515442z"></path>
        </g>
      </g>
      <g>
        <g>
          <g>
            <g>
              <path d="M54.1748428,124.4402161c-0.0576172,0-0.1152344-0.0136719-0.1679688-0.0429688
							c-0.1699219-0.0927734-0.2314453-0.3056641-0.1386719-0.4746094l46.1826172-84.1542969
							c0.046875-0.0859375,0.1279297-0.1484375,0.2226562-0.171875c0.0908203-0.0244141,0.1943359-0.0068359,0.2763672,0.0478516
							l46.5068283,30.6396484c0.1611328,0.1064453,0.2060547,0.3232422,0.0996094,0.484375
							c-0.1064453,0.1630859-0.3232422,0.2060547-0.484375,0.0996094l-46.1904221-30.4306641l-46,83.8212891
							C54.4180069,124.3747864,54.2978897,124.4402161,54.1748428,124.4402161z"></path>
            </g>
          </g>
          <g>
            <g style="enable-background:new">
              <g>
                <g>
                  <path d="M109.5372543,30.8506813c-1.6045456-0.9282169-3.8054657-0.8089123-6.2459564,0.6100426
									c-4.866745,2.7980881-8.7787247,9.5877991-8.7654572,15.170784c0.0132751,2.7716179,0.9945908,4.720974,2.5725937,5.6359978
									l-5.5961761-3.2490044c-1.5780029-0.9150238-2.5460434-2.8643761-2.5593185-5.6359978
									c-0.0132675-5.582901,3.8987122-12.3594208,8.7525024-15.1707821
									c2.4398499-1.4056797,4.6543655-1.5382595,6.2459641-0.6099625L109.5372543,30.8506813z"></path>
                  <path d="M97.098671,52.6169739c-0.0595703,0-0.1201172-0.0146484-0.1757812-0.046875L91.32621,49.3210754
									c-1.7490234-1.0146484-2.7197266-3.1230469-2.7324219-5.9365234
									c-0.0146484-5.6748047,3.9902344-12.6162109,8.9257812-15.4755859
									c2.4814453-1.4296875,4.8242188-1.6455078,6.5976562-0.6103516l5.5957031,3.2490234
									c0.1669922,0.0966797,0.2236328,0.3115234,0.1269531,0.4785156
									c-0.0966797,0.1660156-0.3115234,0.2236328-0.4775391,0.1269531
									c-1.5654297-0.9052734-3.6611328-0.6894531-5.8955078,0.6103516c-4.75,2.7314453-8.6035156,9.4003906-8.5917969,14.8671875
									c0.0126953,2.546875,0.8632812,4.4394531,2.3935547,5.3310547l0.0058594,0.0029297
									c0.1669922,0.0966797,0.2236328,0.3115234,0.1269531,0.4785156
									C97.3369522,52.5544739,97.2187881,52.6169739,97.098671,52.6169739z M101.6348038,27.3552551
									c-1.1455078,0-2.4267578,0.3896484-3.7646484,1.1601562c-4.7421875,2.7470703-8.5898438,9.4160156-8.5771484,14.8662109
									c0.0117188,2.5546875,0.8583984,4.4492188,2.3847656,5.3339844l3.4443359,2
									c-0.6113281-1.0791016-0.9384766-2.4648438-0.9462891-4.0820312
									c-0.0136719-5.6923828,3.9980469-12.6337891,8.9404297-15.4765625
									c1.4306641-0.8320312,2.8222656-1.2529297,4.0888672-1.2558594l-3.4394531-1.9970703
									C103.1367569,27.5368958,102.4170303,27.3552551,101.6348038,27.3552551z"></path>
                </g>
              </g>
              <g>
                <g>
                  <path d="M103.284935,31.458456c4.8600388-2.8059425,8.7960434-0.5485096,8.8118744,5.0356007
									c0.0157852,5.5695114-3.894577,12.3570938-8.7546082,15.1630402c-4.8593521,2.8055458-8.7953568,0.5480614-8.811142-5.02145
									C94.5152283,41.0515366,98.4255905,34.2640038,103.284935,31.458456z" style="fill:#fff"></path>
                  <path d="M99.3974991,53.2165833c-0.8964844,0-1.7285156-0.2099609-2.4638672-0.6328125
									c-1.7666016-1.0175781-2.7441406-3.1289062-2.7519531-5.9472656
									c-0.0166016-5.6845703,3.9892578-12.6289062,8.9287109-15.4804688
									c2.4667969-1.4257812,4.8056641-1.6494141,6.5800781-0.6240234
									c1.7695312,1.0175781,2.7480469,3.1347656,2.7558594,5.9609375
									c0.0166016,5.6767578-3.9892578,12.6152344-8.9296875,15.4667969
									C102.0703506,52.7956848,100.6680069,53.2165833,99.3974991,53.2165833z M107.2266006,30.5993958
									c-1.1474609,0-2.4296875,0.390625-3.7666016,1.1621094l0,0c-4.7451172,2.7402344-8.59375,9.4121094-8.5791016,14.8730469
									c0.0078125,2.5576172,0.8603516,4.4550781,2.4023438,5.3417969c1.5498047,0.8945312,3.640625,0.6708984,5.8837891-0.6220703
									c4.7460938-2.7402344,8.5947266-9.40625,8.5800781-14.859375c-0.0078125-2.5664062-0.8613281-4.46875-2.4052734-5.3564453
									C108.7158585,30.7781067,108.0019913,30.5993958,107.2266006,30.5993958z M103.2851944,31.4587708h0.0087891H103.2851944z"></path>
                </g>
              </g>
            </g>
          </g>
        </g>
        <g>
          <g>
            <path d="M200.4241333,41.4606781c-1.6291962-0.9469757-3.8808899-0.8145599-6.3643341,0.6226425
						l-141.58284,81.7400818c-4.9338455,2.8543549-8.9206276,9.7616196-8.9073715,15.4305649l0.4239349,123.1455994
						c0.006546,2.821228,0.9999275,4.8079834,2.6092415,5.7416992l-18.1982269-10.5870667
						c-1.602684-0.9337158-2.5960655-2.9138489-2.6026955-5.7350616L25.378067,128.6735229
						c-0.0198879-5.67556,3.966898-12.5828323,8.9072876-15.4305573l141.5762939-81.740242
						c2.4900055-1.4370403,4.741684-1.5692978,6.3708038-0.6289482L200.4241333,41.4606781z" style="fill:#fff"></path>
            <path d="M46.6025772,268.4909973c-0.0595703,0-0.1201172-0.0146484-0.1757812-0.046875
						c-0.0019531-0.0009766-0.0048828-0.0029297-0.0068359-0.0039062l-18.1914082-10.5830078
						c-1.7841797-1.0390625-2.7695312-3.1835938-2.7763672-6.0371094l-0.4238281-123.1455078
						c-0.0205078-5.7783203,4.0537109-12.8369141,9.0820332-15.7353516L175.686554,31.1999817
						c2.5166016-1.453125,4.9042969-1.6796875,6.7207031-0.6289062l18.1923828,10.5869141
						c0.1669922,0.0976562,0.2236328,0.3115234,0.1269531,0.4785156c-0.0996094,0.1679688-0.3134766,0.2216797-0.4785156,0.1269531
						l-0.0097656-0.0058594c-1.5859375-0.9160156-3.71875-0.6933594-6.0029297,0.6289062L52.6514053,124.1257629
						c-4.8271484,2.7929688-8.7441406,9.5791016-8.7324219,15.1269531l0.4238281,123.1455078
						c0.0068359,2.6015625,0.8710938,4.5332031,2.4355469,5.4404297l0,0
						c0.1669922,0.0976562,0.2236328,0.3115234,0.1269531,0.4785156
						C46.8398819,268.4294739,46.7226944,268.4909973,46.6025772,268.4909973z M179.8818665,30.6199036
						c-1.171875,0-2.4814453,0.3984375-3.8457031,1.1855469L34.4599991,113.5456848
						c-4.8339863,2.7871094-8.7509785,9.5722656-8.7324238,15.1269531l0.4238281,123.1455078
						c0.0068359,2.5957031,0.8691406,4.5253906,2.4287109,5.4335938l16.0283222,9.3251953
						c-0.6279297-1.1015625-0.9609375-2.5195312-0.9648438-4.1767578l-0.4238281-123.1455078
						c-0.0136719-5.7714844,4.0605469-12.8300781,9.0820312-15.734375l141.5830078-81.7392578
						c1.46875-0.8505859,2.8935547-1.2802734,4.1855469-1.2802734c0.0029297,0,0.0058594,0,0.0087891,0l-16.0224609-9.3242188
						C181.4131165,30.8044739,180.6787415,30.6199036,179.8818665,30.6199036z"></path>
          </g>
        </g>
        <g>
          <g>
            <path d="M194.0578308,42.0843849c4.9385986-2.8513031,8.9557953-0.5669212,8.9718933,5.1080399
						l0.4223938,123.1454926c0.016098,5.6748352-3.9750366,12.5877228-8.9136353,15.4390106L52.9597282,267.5174866
						c-4.9386024,2.8512878-8.9516029,0.5596008-8.9676933-5.1152344l-0.4223976-123.1455078
						c-0.0160904-5.6749573,3.9708405-12.5805283,8.9094391-15.4318237L194.0578308,42.0843849z" style="fill:#10b981"></path>
          </g>
        </g>
        <g>
          <g>
            <path d="M202.948761,45.9327087c-0.4243622,0.1682625-0.863327,0.3804665-1.3022919,0.6366119
						L60.070549,128.3078613c-4.938549,2.8461761-8.9259377,9.7527771-8.9112892,15.4302979l0.424408,123.1421204
						c0,0.4463806,0.0292015,0.8707886,0.0803795,1.2730408c-4.3239136,1.7853394-7.6528969-0.5780029-7.6748657-5.7505493
						l-0.416996-123.1494598c-0.0219688-5.6701965,3.9655075-12.5769806,8.9040565-15.4302979l141.5831451-81.7388992
						C198.6101532,39.4505043,202.3854218,41.1988602,202.948761,45.9327087z" style="fill:#fff"></path>
          </g>
        </g>
        <g>
          <g>
            <path d="M48.9492569,269.0974426c-0.9121094,0-1.7587891-0.2138672-2.5078125-0.6445312
						c-1.796875-1.0341797-2.7910156-3.1826172-2.7988281-6.0498047l-0.4228516-123.1455078
						c-0.0166016-5.7753906,4.0595703-12.8349609,9.0849609-15.7353516l141.578125-81.7402344
						c2.5117188-1.4492188,4.8896484-1.6767578,6.6992188-0.6337891c1.7958984,1.0332031,2.7890625,3.1796875,2.796875,6.0429688
						l0.4228516,123.1455078c0.0166016,5.7783203-4.0615234,12.8408203-9.0888672,15.7431641l-141.578125,81.7402344
						C51.6650772,268.6687317,50.2412491,269.0974426,48.9492569,269.0974426z M198.0713196,41.2038879
						c-1.1689453,0-2.4765625,0.3974609-3.8388672,1.1835938L52.654335,124.1277161
						c-4.8320312,2.7900391-8.75,9.5761719-8.7353516,15.1279297l0.4228516,123.1455078
						c0.0078125,2.6064453,0.8769531,4.5400391,2.4492188,5.4453125c1.5830078,0.9091797,3.7119141,0.6855469,5.9941406-0.6318359
						l141.578125-81.7402344c4.8339844-2.7919922,8.7539062-9.5810547,8.7392578-15.1357422L202.679718,47.1931458
						c-0.0078125-2.6035156-0.8759766-4.5351562-2.4472656-5.4384766
						C199.592804,41.3865051,198.8633118,41.2038879,198.0713196,41.2038879z M194.0576477,42.0847473h0.0087891H194.0576477z"></path>
          </g>
        </g>
        <g>
          <g>
            <path d="M35.0957413,237.5495911c-0.1923828,0-0.3496094-0.1552734-0.3496094-0.3486328l-0.4238281-103.9462891
						c-0.0205078-5.7783203,4.0537109-12.8369141,9.0820312-15.7353516l118.7548752-68.5634766
						c0.1650391-0.0966797,0.3808594-0.0400391,0.4775391,0.1279297c0.0966797,0.1669922,0.0400391,0.3808594-0.1279297,0.4775391
						L43.7539444,118.1257629c-4.8339844,2.7871094-8.7509766,9.5722656-8.7324219,15.1269531l0.4238281,103.9462891
						c0.0009766,0.1923828-0.1552734,0.3505859-0.3486328,0.3505859H35.0957413z"></path>
          </g>
        </g>
        <g>
          <g>
            <g>
              <path d="M59.4922256,240.9177551c-0.0605469,0-0.1201172-0.015625-0.1748047-0.0458984
							c-0.1083984-0.0625-0.1748047-0.1777344-0.1748047-0.3027344l-0.1669922-72
							c-0.0009766-0.1259766,0.0664062-0.2412109,0.1748047-0.3037109l26.0117188-15.0175781
							c0.1074219-0.0625,0.2402344-0.0615234,0.3496094-0.0009766c0.1083984,0.0625,0.1748047,0.1777344,0.1748047,0.3027344
							l0.0888672,31.2011719l10.7363281-6.1982422c0.1650391-0.0986328,0.3808594-0.0400391,0.4775391,0.1279297
							c0.0966797,0.1669922,0.0400391,0.3808594-0.1279297,0.4775391l-11.2597656,6.5009766
							c-0.1074219,0.0625-0.2402344,0.0615234-0.3496094,0.0009766c-0.1083984-0.0625-0.1748047-0.1777344-0.1748047-0.3027344
							l-0.0888672-31.2011719l-25.3125,14.6142578l0.1650391,71.1923828l127.5048752-73.6152344l-0.1650391-71.1923828
							l-25.1435547,14.5166016l0.0888672,31.6025391c0.0009766,0.125-0.0664062,0.2412109-0.1748047,0.3037109
							l-50.6747971,29.2578125c-0.1660156,0.0976562-0.3808594,0.0400391-0.4775391-0.1279297
							c-0.0966797-0.1669922-0.0400391-0.3808594,0.1279297-0.4775391l50.4990158-29.1572266l-0.0888672-31.6025391
							c-0.0009766-0.125,0.0664062-0.2412109,0.1748047-0.3037109l25.8427734-14.9199219
							c0.1074219-0.0625,0.2402344-0.0615234,0.3496094-0.0009766c0.1083984,0.0625,0.1748047,0.1777344,0.1748047,0.3027344
							l0.1669922,72c0.0009766,0.1259766-0.0664062,0.2412109-0.1748047,0.3037109L59.6670303,240.8708801
							C59.6133194,240.9021301,59.5527725,240.9177551,59.4922256,240.9177551z"></path>
            </g>
          </g>
          <g>
            <g>
              <path d="M85.426796,185.7058411c-0.0605469,0-0.1201172-0.015625-0.1748047-0.0458984
							c-0.1083984-0.0625-0.1748047-0.1777344-0.1748047-0.3027344l-0.1796875-63.6181641
							c-0.0009766-0.125,0.0664062-0.2412109,0.1748047-0.3037109l76.3496017-44.0800781
							c0.1074219-0.0625,0.2402344-0.0615234,0.3496094-0.0009766c0.1083984,0.0625,0.1748047,0.1777344,0.1748047,0.3027344
							l0.1796875,63.6171875c0.0009766,0.125-0.0664062,0.2412109-0.1748047,0.3037109l-50.6747971,29.2578125
							c-0.1660156,0.0976562-0.3808594,0.0400391-0.4775391-0.1279297
							c-0.0966797-0.1669922-0.0400391-0.3808594,0.1279297-0.4775391l50.4990158-29.1572266l-0.1777344-62.8095703
							l-75.650383,43.6767578l0.1777344,62.8105469l10.5605469-6.0976562l-0.0380859-13.5537109
							c-0.0009766-0.1933594,0.1552734-0.3505859,0.3486328-0.3505859h0.0009766
							c0.1923828,0,0.3496094,0.1552734,0.3496094,0.3486328l0.0390625,13.7568359
							c0.0009766,0.125-0.0664062,0.2412109-0.1748047,0.3037109l-11.2597656,6.5009766
							C85.5478897,185.6902161,85.4873428,185.7058411,85.426796,185.7058411z"></path>
            </g>
          </g>
        </g>
        <g>
          <path d="M98.5459366,138.6316223c-0.1923828,0-0.3496094-0.1552734-0.3496094-0.3486328l-0.0693359-24.1855469
					c-0.0009766-0.1933594,0.1552734-0.3505859,0.3486328-0.3505859h0.0009766c0.1923828,0,0.3496094,0.1552734,0.3496094,0.3486328
					l0.0693359,24.1855469c0.0009766,0.1933594-0.1552734,0.3505859-0.3486328,0.3505859H98.5459366z"></path>
        </g>
        <g>
          <path d="M98.5166397,128.0261536c-0.1210938,0-0.2382812-0.0625-0.3027344-0.1748047
					c-0.0966797-0.1669922-0.0400391-0.3818359,0.1279297-0.4775391l18.5800781-10.7197266
					c0.1660156-0.0976562,0.3808594-0.0400391,0.4775391,0.1279297c0.0966797,0.1669922,0.0400391,0.3818359-0.1279297,0.4775391
					l-18.5800781,10.7197266C98.6367569,128.0115051,98.57621,128.0261536,98.5166397,128.0261536z"></path>
        </g>
        <g>
          <polyline points="178.722 130.671 178.656 107.351 169.862 112.428 169.928 135.748 178.722 130.671"></polyline>
        </g>
        <g>
          <polyline points="76.187 189.87 76.121 166.549 67.327 171.627 67.393 194.947 76.187 189.87"></polyline>
        </g>
        <g>
          <path d="M133.5967102,198.1257629c-0.1933594,0-0.3496094-0.15625-0.3496094-0.3486328l-0.0302734-14.9902344
					c-0.0009766-0.1933594,0.1552734-0.3505859,0.3486328-0.3505859c0.0009766,0,0.0009766,0,0.0009766,0
					c0.1933594,0,0.3496094,0.15625,0.3496094,0.3486328l0.0302734,14.9902344
					c0.0009766,0.1933594-0.1552734,0.3505859-0.3486328,0.3505859
					C133.5967102,198.1257629,133.5967102,198.1257629,133.5967102,198.1257629z"></path>
        </g>
        <g>
          <path d="M114.0264053,199.8855286c-0.1210938,0-0.2382812-0.0625-0.3027344-0.1748047
					c-0.0966797-0.1669922-0.0400391-0.3808594,0.1279297-0.4775391l19.5497971-11.2890625
					c0.1669922-0.0986328,0.3818359-0.0400391,0.4775391,0.1279297c0.0966797,0.1669922,0.0400391,0.3808594-0.1279297,0.4775391
					L114.20121,199.8386536C114.1465225,199.8708801,114.0859756,199.8855286,114.0264053,199.8855286z"></path>
        </g>
      </g>
      <g>
        <g>
          <g>
            <path d="M269.0398865,111.933403c-1.1510925-0.669075-2.7420044-0.5755157-4.4966431,0.4399261
						l-88.1826019,50.9102554c-3.4859619,2.0167236-6.3027954,6.8970032-6.2934265,10.9023438l0.2995148,88.6890106
						c0.0046387,1.9933167,0.7064972,3.3970642,1.8435516,4.0567627l-14.712677-8.5809326
						c-1.1323547-0.6596985-1.8342285-2.0587463-1.838913-4.052063l-0.299408-88.6890259
						c-0.0140533-4.010025,2.8027802-8.8903046,6.2933655-10.9023438l88.1779633-50.9103699
						c1.7592926-1.0153275,3.3502045-1.1087723,4.5012512-0.4443741L269.0398865,111.933403z" style="fill:#fff"></path>
            <path d="M172.2099915,267.2810364c-0.0595703,0-0.1201172-0.0146484-0.1757812-0.046875
						c-0.0048828-0.0029297-0.0107422-0.0068359-0.0166016-0.0097656l-14.6962891-8.5712891
						c-1.2929688-0.7529297-2.0078125-2.2988281-2.0126953-4.3535156l-0.2988281-88.6884766
						c-0.015625-4.1152344,2.8857422-9.1425781,6.4677734-11.2070312l88.1787109-50.9101562
						c1.8125-1.046875,3.5371094-1.203125,4.8505859-0.4443359l14.7099609,8.5810547
						c0.1660156,0.0976562,0.2226562,0.3115234,0.1259766,0.4785156c-0.0976562,0.1679688-0.3115234,0.2246094-0.4785156,0.1269531
						c0,0,0,0-0.0009766,0l-0.0029297-0.0019531c-1.0878906-0.6318359-2.5595703-0.4746094-4.1416016,0.4423828
						l-88.1835938,50.9101562c-3.3828125,1.9580078-6.1269531,6.7119141-6.1181641,10.5986328l0.2988281,88.6884766
						c0.0048828,1.7958984,0.5947266,3.1279297,1.6630859,3.7509766l0.0009766,0.0009766
						c0.0019531,0.0009766,0.0039062,0.0019531,0.0058594,0.0029297h0.0009766
						c0.1660156,0.0976562,0.2226562,0.3115234,0.1259766,0.4785156
						C172.4472961,267.2195129,172.3301086,267.2810364,172.2099915,267.2810364z M252.6719055,103.2761536
						c-0.8095703,0-1.7177734,0.2763672-2.6660156,0.8232422l-88.1787109,50.9111328
						c-3.3876953,1.953125-6.1318359,6.7070312-6.1181641,10.5986328l0.2988281,88.6884766
						c0.0048828,1.7958984,0.5966797,3.1279297,1.6660156,3.75l12.8720703,7.5078125
						c-0.3447266-0.7402344-0.5273438-1.6455078-0.5292969-2.6796875l-0.2988281-88.6884766
						c-0.0107422-4.1103516,2.890625-9.1367188,6.4677734-11.2060547l88.1826172-50.9101562
						c0.9248047-0.5361328,1.8271484-0.8378906,2.6630859-0.9042969l-12.8759766-7.5117188
						C253.717804,103.4021301,253.2168274,103.2761536,252.6719055,103.2761536z"></path>
          </g>
        </g>
        <g>
          <g>
            <path d="M264.5418396,112.3740768c3.4893188-2.0145645,6.3276672-0.4005508,6.3390198,3.6090469
						l0.2984314,88.6889496c0.0113831,4.0095062-2.8085327,8.8937531-6.2978516,10.9083099l-88.1797028,50.9105835
						c-3.4893188,2.0145569-6.3246765,0.3953857-6.3360443-3.6141052l-0.2984467-88.6889648
						c-0.0113678-4.0095978,2.8055725-8.8886719,6.2948914-10.903244L264.5418396,112.3740768z" style="fill:#fff"></path>
          </g>
        </g>
        <g>
          <g>
            <path d="M270.8236694,115.0930862c-0.2998352,0.1188812-0.6099854,0.2688141-0.9201355,0.449791
						l-88.1777039,50.9091644c-3.4892883,2.0109406-6.3065491,6.8907471-6.2962036,10.9021606l0.2998657,88.6865692
						c0,0.3153687,0.0206299,0.6152344,0.0567932,0.8994446c-3.0550232,1.2614136-5.4070892-0.4083862-5.4226074-4.0630188
						l-0.294632-88.6917419c-0.0155182-4.0062256,2.8018036-8.8861542,6.2910919-10.9021454l88.1828003-50.9094238
						C267.7582397,110.5131302,270.4256287,111.7484207,270.8236694,115.0930862z" style="fill:#fff"></path>
          </g>
        </g>
        <g>
          <g>
            <path d="M173.867218,267.7107239c-0.6621094,0-1.2773438-0.15625-1.8222656-0.4697266
						c-1.3027344-0.75-2.0234375-2.2998047-2.0292969-4.3632812l-0.2978516-88.6884766
						c-0.0126953-4.1132812,2.8896484-9.140625,6.4697266-11.2070312l88.1796875-50.9111328l0.1748047,0.3027344
						l-0.1748047-0.3027344c1.8085938-1.0429688,3.5263672-1.2011719,4.8349609-0.4482422
						c1.3017578,0.7490234,2.0224609,2.2978516,2.0283203,4.359375l0.2988281,88.6884766
						c0.0117188,4.1162109-2.8925781,9.1464844-6.4726562,11.2128906l-88.1796875,50.9101562
						C175.8222961,267.4031067,174.7978821,267.7097473,173.867218,267.7107239z M264.7168274,112.6765442l-88.1796875,50.9111328
						c-3.3857422,1.9550781-6.1308594,6.7099609-6.1201172,10.5996094l0.2978516,88.6884766
						c0.0058594,1.8037109,0.6015625,3.1386719,1.6796875,3.7587891c1.0839844,0.6220703,2.5527344,0.4658203,4.1328125-0.4462891
						l88.1796875-50.9101562c3.3867188-1.9560547,6.1328125-6.7128906,6.1230469-10.6054688l-0.2988281-88.6884766
						c-0.0058594-1.8017578-0.6015625-3.1347656-1.6777344-3.7548828
						C267.7666321,111.6042786,266.2978821,111.7644348,264.7168274,112.6765442L264.7168274,112.6765442z"></path>
          </g>
        </g>
        <g>
          <g>
            <path d="M162.8447571,236.0378723c-0.1923828,0-0.3496094-0.1552734-0.3496094-0.3486328l-0.2119141-65.5771484
						c-0.015625-4.1142578,2.8857422-9.1416016,6.4677734-11.2060547l71.1914062-41.1025391
						c0.1660156-0.0986328,0.3808594-0.0400391,0.4775391,0.1279297c0.0966797,0.1669922,0.0400391,0.3808594-0.1279297,0.4775391
						l-71.1914062,41.1025391c-3.3876953,1.9541016-6.1318359,6.7080078-6.1181641,10.5986328l0.2119141,65.5771484
						c0.0009766,0.1933594-0.1552734,0.3505859-0.3486328,0.3505859H162.8447571z"></path>
          </g>
        </g>
        <g>
          <g>
            <g>
              <g>
                <polygon points="226.375 144.331 201.266 185.048 201.309 200.026 201.42 239.267 214.755 231.568 214.662 198.636 238.357 184.956 238.45 217.888 239.938 217.028 251.785 210.188 251.632 155.969"></polygon>
              </g>
            </g>
            <g>
              <g>
                <polygon points="201.262 185.045 201.312 200.025 201.414 239.273 204.905 237.248 204.815 201.083 204.765 186.115 229.605 145.822 226.369 144.332" style="fill:#fff"></polygon>
              </g>
            </g>
            <g>
              <g>
                <polygon points="214.662 198.636 214.755 231.568 238.45 217.888 238.357 184.956" style="fill:#fff"></polygon>
              </g>
            </g>
            <g>
              <g>
                <polygon points="189.461 206.866 189.572 246.107 239.938 217.028 201.42 239.267 201.309 200.026" style="fill:#10b981"></polygon>
              </g>
            </g>
            <g>
              <g>
                <polygon points="189.465 206.866 189.567 246.101 192.217 244.572 192.115 208.242 201.325 202.93 201.312 200.025" style="fill:#fff"></polygon>
              </g>
            </g>
          </g>
          <g>
            <g>
              <g>
                <path d="M201.4199524,239.6159973c-0.0605469,0-0.1201172-0.015625-0.1748047-0.0458984
								c-0.1083984-0.0625-0.1748047-0.1777344-0.1748047-0.3027344l-0.1542969-54.21875
								c-0.0009766-0.0654297,0.0175781-0.1289062,0.0517578-0.1845703l25.109375-40.7167969
								c0.0927734-0.1513672,0.2871094-0.2070312,0.4443359-0.1347656l25.2568359,11.6386719
								c0.1240234,0.0576172,0.203125,0.1806641,0.203125,0.3173828l0.1533203,54.21875
								c0.0009766,0.125-0.0664062,0.2412109-0.1748047,0.3037109l-13.3349609,7.6992188
								c-0.1074219,0.0625-0.2402344,0.0615234-0.3496094,0.0009766c-0.1083984-0.0625-0.1748047-0.1777344-0.1748047-0.3027344
								l-0.0927734-32.3271484l-22.9951172,13.2773438l0.0917969,32.7275391
								c0.0009766,0.125-0.0664062,0.2412109-0.1748047,0.3037109l-13.3349609,7.6992188
								C201.5410461,239.6003723,201.4804993,239.6159973,201.4199524,239.6159973z M201.6162415,185.1462708l0.1523438,53.5146484
								l12.6357422-7.2958984l-0.0917969-32.7275391c-0.0009766-0.125,0.0664062-0.2412109,0.1748047-0.3037109
								l23.6943359-13.6806641c0.1074219-0.0625,0.2402344-0.0615234,0.3496094-0.0009766
								c0.1083984,0.0625,0.1748047,0.1777344,0.1748047,0.3027344l0.0927734,32.3271484l12.6357422-7.2958984
								l-0.1523438-53.7919922l-24.7724609-11.4160156L201.6162415,185.1462708z"></path>
              </g>
            </g>
            <g>
              <g>
                <path d="M214.7549133,231.9167786c-0.0605469,0-0.1201172-0.015625-0.1748047-0.0458984
								c-0.1083984-0.0625-0.1748047-0.1777344-0.1748047-0.3027344l-0.0927734-32.9306641
								c-0.0009766-0.125,0.0664062-0.2412109,0.1748047-0.3037109l23.6943359-13.6806641
								c0.1074219-0.0625,0.2402344-0.0615234,0.3496094-0.0009766c0.1083984,0.0625,0.1748047,0.1777344,0.1748047,0.3027344
								l0.09375,32.9316406c0.0009766,0.125-0.0664062,0.2412109-0.1748047,0.3037109l-23.6953125,13.6796875
								C214.8760071,231.9011536,214.8154602,231.9167786,214.7549133,231.9167786z M215.0127258,198.8386536l0.0908203,32.1230469
								l22.9960938-13.2763672l-0.0917969-32.1240234L215.0127258,198.8386536z"></path>
              </g>
            </g>
            <g>
              <g>
                <path d="M189.5722961,246.4568176c-0.0605469,0-0.1201172-0.015625-0.1748047-0.0458984
								c-0.1083984-0.0625-0.1748047-0.1777344-0.1748047-0.3027344l-0.1113281-39.2412109
								c-0.0009766-0.125,0.0664062-0.2412109,0.1748047-0.3037109l11.8476562-6.8408203
								c0.1074219-0.0625,0.2402344-0.0615234,0.3496094-0.0009766c0.1083984,0.0625,0.1748047,0.1777344,0.1748047,0.3027344
								l0.1103516,38.6367188l37.9951172-21.9355469c0.1669922-0.0976562,0.3818359-0.0390625,0.4775391,0.1279297
								c0.0966797,0.1669922,0.0400391,0.3808594-0.1279297,0.4775391l-50.3662109,29.0791016
								C189.6933899,246.4411926,189.632843,246.4568176,189.5722961,246.4568176z M189.811554,207.0681458l0.109375,38.4335938
								l11.1484375-6.4365234l-0.109375-38.4345703L189.811554,207.0681458z"></path>
              </g>
            </g>
          </g>
        </g>
        <g>
          <g>
            <g>
              <g>
                <path d="M177.3486633,179.9997864c-0.1210938,0-0.2382812-0.0625-0.3027344-0.1748047
								c-0.0966797-0.1669922-0.0400391-0.3808594,0.1279297-0.4775391l18.8525391-10.8847656
								c0.1650391-0.0976562,0.3808594-0.0400391,0.4775391,0.1279297c0.0966797,0.1669922,0.0400391,0.3808594-0.1279297,0.4775391
								l-18.8525391,10.8847656C177.4687805,179.9851379,177.4082336,179.9997864,177.3486633,179.9997864z"></path>
              </g>
            </g>
            <g>
              <g>
                <path d="M181.9394836,185.3777161c-0.1210938,0-0.2382812-0.0625-0.3027344-0.1748047
								c-0.0966797-0.1669922-0.0400391-0.3808594,0.1279297-0.4775391l9.6708984-5.5830078
								c0.1660156-0.0976562,0.3808594-0.0390625,0.4775391,0.1279297s0.0400391,0.3808594-0.1279297,0.4775391
								l-9.6708984,5.5830078C182.0596008,185.3630676,181.999054,185.3777161,181.9394836,185.3777161z"></path>
              </g>
            </g>
          </g>
          <g>
            <g>
              <g>
                <path d="M245.045929,140.9148254c-0.1210938,0-0.2382812-0.0625-0.3027344-0.1748047
								c-0.0966797-0.1669922-0.0400391-0.3808594,0.1279297-0.4775391l18.8525391-10.8847656
								c0.1650391-0.0986328,0.3808594-0.0400391,0.4775391,0.1279297c0.0966797,0.1669922,0.0400391,0.3808594-0.1279297,0.4775391
								l-18.8525391,10.8847656C245.1660461,140.900177,245.1054993,140.9148254,245.045929,140.9148254z"></path>
              </g>
            </g>
            <g>
              <g>
                <path d="M249.6367493,146.2927551c-0.1210938,0-0.2382812-0.0625-0.3027344-0.1748047
								c-0.0966797-0.1669922-0.0400391-0.3808594,0.1279297-0.4775391l9.6708984-5.5830078
								c0.1650391-0.0976562,0.3818359-0.0400391,0.4775391,0.1279297c0.0966797,0.1669922,0.0400391,0.3808594-0.1279297,0.4775391
								l-9.6708984,5.5830078C249.7568665,146.2781067,249.6963196,146.2927551,249.6367493,146.2927551z"></path>
              </g>
            </g>
          </g>
        </g>
      </g>
      <g>
        <g>
          <g>
            <path d="M244.3568726,47.2330704c-0.5178223-0.3009949-1.2335205-0.2589073-2.0228729,0.1979027
						l-50.1270905,28.9399986c-1.5682068,0.9072418-2.8353882,3.1026917-2.8311768,4.9045334l0.1347504,31.0279083
						c0.0020752,0.8967056,0.3178253,1.5281906,0.8293304,1.8249664l-6.6186371-3.8602219
						c-0.5094147-0.2967758-0.8251495-0.9261551-0.8272552-1.8228607l-0.1347046-31.0279083
						c-0.0063171-1.8039474,1.2608643-3.9993896,2.8311462-4.9045334l50.1250153-28.9400482
						c0.7914429-0.4567566,1.5071259-0.4987946,2.0249329-0.1999092L244.3568726,47.2330704z" style="fill:#fff"></path>
            <path d="M190.3398743,114.478302c-0.0595703,0-0.1201172-0.0146484-0.1757812-0.046875c0,0,0,0-0.0009766,0
						l-0.0009766-0.0009766c-0.0009766-0.0009766-0.0019531-0.0009766-0.0029297-0.0019531l-6.6152344-3.8574219
						c-0.6425781-0.3759766-0.9980469-1.1298828-1-2.125l-0.1347656-31.0263672
						c-0.0068359-1.9462891,1.3134766-4.234375,3.0058594-5.2099609l50.1259766-28.9394531
						c0.8779297-0.5078125,1.7216797-0.578125,2.3740234-0.2001953l6.6152344,3.859375
						c0.0009766,0,0.0009766,0.0009766,0.0019531,0.0009766h0.0009766c0.1660156,0.0976562,0.2226562,0.3115234,0.1259766,0.4785156
						c-0.0986328,0.1679688-0.3115234,0.2236328-0.4785156,0.1269531c-0.4267578-0.2480469-1.0205078-0.1787109-1.6708984,0.1982422
						l-50.1279297,28.9394531c-1.46875,0.8505859-2.6601562,2.9140625-2.65625,4.6005859l0.1347656,31.0273438
						c0.0019531,0.7373047,0.2324219,1.2763672,0.6503906,1.5214844l0.0058594,0.0029297
						c0.1660156,0.0976562,0.2226562,0.3115234,0.1259766,0.4785156
						C190.577179,114.4167786,190.4599915,114.478302,190.3398743,114.478302z M236.9931946,43.5310364
						c-0.3300781,0-0.7050781,0.1162109-1.1025391,0.3447266L185.764679,72.8152161
						c-1.4697266,0.8486328-2.6611328,2.9121094-2.65625,4.6015625l0.1347656,31.0263672
						c0.0019531,0.7373047,0.234375,1.2783203,0.6542969,1.5224609l5.3476562,3.1191406
						c-0.0546875-0.2392578-0.0839844-0.5-0.0839844-0.7802734l-0.1347656-31.0273438
						c-0.0058594-1.9433594,1.3144531-4.2314453,3.0058594-5.2089844l50.1269531-28.9394531
						c0.2548828-0.1484375,0.5078125-0.2587891,0.7539062-0.3320312l-5.3496094-3.1210938
						C237.3965149,43.5788879,237.2041321,43.5310364,236.9931946,43.5310364z"></path>
          </g>
        </g>
        <g>
          <g>
            <path d="M242.333374,47.4313087c1.5697174-0.9062729,2.8465576-0.180191,2.8516846,1.6235695l0.1342468,31.0278702
						c0.0051117,1.8037186-1.263443,4.000946-2.8331604,4.9072189l-50.1257935,28.9401474
						c-1.5697174,0.9062729-2.8452301,0.1778641-2.8503418-1.6258545l-0.1342621-31.0278702
						c-0.0051117-1.8037567,1.2621155-3.9986649,2.8318329-4.9049377L242.333374,47.4313087z" style="fill:#fff"></path>
          </g>
        </g>
        <g>
          <g>
            <path d="M245.159317,48.6544838c-0.1348877,0.0534821-0.2743988,0.1209297-0.4139252,0.202343
						l-50.1248932,28.9395142c-1.5697021,0.9046402-2.8370667,3.0998764-2.8324127,4.9044418l0.1348877,31.0268021
						c0,0.1418762,0.0092926,0.2767792,0.0255585,0.4046326c-1.3743439,0.5674591-2.4324493-0.1837234-2.4394226-1.8277893
						l-0.1325378-31.029129c-0.0069885-1.8022461,1.2604065-3.9975357,2.8301086-4.9044495l50.1271973-28.9396248
						C243.7803192,46.5941429,244.9802704,47.1498489,245.159317,48.6544838z" style="fill:#fff"></path>
          </g>
        </g>
        <g>
          <g>
            <path d="M191.0849915,114.6716614c-0.3310547,0-0.6396484-0.078125-0.9160156-0.2373047
						c-0.6474609-0.3730469-1.0068359-1.1289062-1.0087891-2.1289062l-0.1337891-31.0273438
						c-0.0068359-1.9443359,1.3144531-4.2324219,3.0068359-5.2089844l50.125-28.9404297l0,0
						c0.8740234-0.5048828,1.7158203-0.5761719,2.3681641-0.2021484c0.6474609,0.3730469,1.0058594,1.1279297,1.0078125,2.1269531
						l0.1347656,31.0273438c0.0058594,1.9462891-1.3154297,4.2353516-3.0078125,5.2119141l-50.1259766,28.9404297
						C192.0312805,114.525177,191.5371399,114.6716614,191.0849915,114.6716614z M242.507843,47.7341614l-50.125,28.9404297
						c-1.4707031,0.8486328-2.6621094,2.9130859-2.6572266,4.6005859l0.1337891,31.0273438
						c0.0019531,0.7402344,0.2363281,1.2822266,0.6591797,1.5253906c0.4257812,0.2441406,1.0166016,0.1728516,1.6669922-0.2001953
						l50.1259766-28.9404297c1.4697266-0.8496094,2.6621094-2.9140625,2.6582031-4.6035156l-0.1347656-31.0273438
						c-0.0019531-0.7392578-0.2363281-1.2802734-0.6582031-1.5234375
						C243.7510071,47.2878723,243.1572571,47.3601379,242.507843,47.7341614L242.507843,47.7341614z"></path>
          </g>
        </g>
        <g>
          <g>
            <path d="M186.1269836,100.4226379c-0.1923828,0-0.3486328-0.1552734-0.3496094-0.3476562l-0.0957031-20.6308594
						c-0.0068359-1.9462891,1.3134766-4.234375,3.0058594-5.2089844l42.4833984-24.5283203
						c0.1660156-0.0976562,0.3818359-0.0400391,0.4775391,0.1279297c0.0966797,0.1669922,0.0400391,0.3808594-0.1279297,0.4775391
						l-42.4833984,24.5283203c-1.4697266,0.8476562-2.6611328,2.9111328-2.65625,4.6005859l0.0957031,20.6298828
						c0.0009766,0.1933594-0.1542969,0.3505859-0.3476562,0.3515625
						C186.1279602,100.4226379,186.1279602,100.4226379,186.1269836,100.4226379z"></path>
          </g>
        </g>
        <g>
          <g>
            <g>
              <polygon points="206.368 80.593 206.404 93.426 195.236 99.873 195.2 87.041"></polygon>
            </g>
          </g>
          <g>
            <g>
              <polygon points="197.067 88.191 197.098 98.803 195.234 99.876 195.204 87.041 206.368 80.592 206.375 82.816" style="fill:#fff"></polygon>
            </g>
          </g>
          <g>
            <g>
              <polygon points="222.915 71.039 222.952 83.872 211.784 90.32 211.747 77.487" style="fill:#10b981"></polygon>
            </g>
          </g>
          <g>
            <g>
              <polygon points="213.56 78.698 213.591 89.28 211.781 90.322 211.75 77.487 222.914 71.039 222.922 73.293" style="fill:#fff"></polygon>
            </g>
          </g>
          <g>
            <g>
              <polygon points="239.459 61.488 239.495 74.321 228.327 80.769 228.291 67.936"></polygon>
            </g>
          </g>
          <g>
            <g>
              <polygon points="229.777 68.915 229.807 79.91 228.327 80.769 228.289 67.933 239.461 61.485 239.468 63.325" style="fill:#fff"></polygon>
            </g>
          </g>
        </g>
        <g>
          <g>
            <g>
              <path d="M195.2363586,100.2224426c-0.0605469,0-0.1201172-0.015625-0.1748047-0.0458984
							c-0.1083984-0.0625-0.1748047-0.1777344-0.1748047-0.3027344l-0.0361328-12.8320312
							c-0.0009766-0.125,0.0664062-0.2412109,0.1748047-0.3037109l11.1679688-6.4482422
							c0.1074219-0.0625,0.2402344-0.0615234,0.3496094-0.0009766c0.1083984,0.0625,0.1748047,0.1777344,0.1748047,0.3027344
							l0.0361328,12.8330078c0.0009766,0.125-0.0664062,0.2412109-0.1748047,0.3037109l-11.1679688,6.4472656
							C195.3574524,100.2068176,195.2969055,100.2224426,195.2363586,100.2224426z M195.5508118,87.2429504l0.0341797,12.0244141
							l10.46875-6.0439453l-0.0341797-12.0253906L195.5508118,87.2429504z"></path>
            </g>
          </g>
          <g>
            <g>
              <path d="M211.7832336,90.6697083c-0.0605469,0-0.1201172-0.015625-0.1748047-0.0458984
							c-0.1083984-0.0625-0.1748047-0.1777344-0.1748047-0.3027344l-0.0361328-12.8330078
							c-0.0009766-0.125,0.0664062-0.2412109,0.1748047-0.3037109l11.1679688-6.4482422
							c0.1074219-0.0625,0.2402344-0.0615234,0.3496094-0.0009766c0.1083984,0.0625,0.1748047,0.1777344,0.1748047,0.3027344
							l0.0361328,12.8330078c0.0009766,0.125-0.0664062,0.2412109-0.1748047,0.3037109l-11.1679688,6.4482422
							C211.9043274,90.6540833,211.8437805,90.6697083,211.7832336,90.6697083z M212.0976868,77.6892395l0.0341797,12.0253906
							l10.46875-6.0449219l-0.0341797-12.0253906L212.0976868,77.6892395z"></path>
            </g>
          </g>
          <g>
            <g>
              <path d="M228.327179,81.1179504c-0.0605469,0-0.1201172-0.015625-0.1748047-0.0458984
							c-0.1083984-0.0625-0.1748047-0.1777344-0.1748047-0.3027344l-0.0361328-12.8330078
							c-0.0009766-0.125,0.0664062-0.2412109,0.1748047-0.3037109l11.1679688-6.4472656
							c0.1074219-0.0625,0.2402344-0.0615234,0.3496094-0.0009766c0.1083984,0.0625,0.1748047,0.1777344,0.1748047,0.3027344
							l0.0361328,12.8320312c0.0009766,0.125-0.0664062,0.2412109-0.1748047,0.3037109l-11.1679688,6.4482422
							C228.4482727,81.1023254,228.3877258,81.1179504,228.327179,81.1179504z M228.6416321,68.1374817l0.0341797,12.0253906
							l10.46875-6.0449219l-0.0341797-12.0244141L228.6416321,68.1374817z"></path>
            </g>
          </g>
        </g>
      </g>
      <g>
        <g>
          <path d="M98.4728622,266.6298218l-5.0794678,11.8911743l-0.0160751,0.0435791
					c-0.2684097,0.7617188-0.9131088,1.4889526-1.9317474,2.0809021c-2.7783737,1.6151733-7.3003464,1.6151733-10.0993347,0
					c-1.0851822-0.6240234-1.7505493-1.3995056-1.9960251-2.2116699h-0.0022659l-5.045105-11.8039856H98.4728622z" style="fill:#fff"></path>
        </g>
        <g>
          <path d="M89.770462,281.3674927c-2.694046,0.8459473-6.1407776,0.6057739-8.427887-0.7206116
					c-1.0861893-0.6265869-1.7440186-1.3994141-1.9949112-2.2140503l-5.0443954-11.8013916h2.0367279l4.8771286,11.414978
					c0.2508926,0.8041687,0.9189224,1.5874634,2.0051117,2.2036133
					C85.0080719,281.2839355,87.4833527,281.6599731,89.770462,281.3674927z" style="fill:#fff"></path>
        </g>
        <g>
          <g>
            <g>
              <g>
                <path d="M86.4033585,282.1999817c-1.8916016,0-3.7861328-0.4169922-5.2314453-1.2519531
								c-1.1123047-0.6386719-1.8525391-1.4570312-2.1425781-2.3691406
								c-0.0009766-0.0029297-0.0019531-0.0058594-0.0039062-0.0078125l-5.0449219-11.8037109
								c-0.0458984-0.1083984-0.0341797-0.2324219,0.0302734-0.3300781
								c0.0644531-0.0986328,0.1748047-0.1572266,0.2919922-0.1572266h24.1699219
								c0.1171875,0,0.2275391,0.0585938,0.2919922,0.1572266c0.0644531,0.0976562,0.0761719,0.2216797,0.0302734,0.3300781
								l-5.0791016,11.8916016c-0.3144531,0.8896484-1.0361328,1.6738281-2.0947266,2.2890625
								C90.185585,281.7820129,88.2959366,282.1999817,86.4033585,282.1999817z M79.6533585,278.2585754
								c0.0136719,0.0224609,0.0244141,0.0478516,0.0322266,0.0732422c0.2285156,0.7558594,0.8623047,1.4511719,1.8359375,2.0097656
								c2.6953125,1.5576172,7.0683594,1.5576172,9.7480469,0.0009766c0.9130859-0.5302734,1.5273438-1.1855469,1.7773438-1.8945312
								l4.8955078-11.46875H74.833046L79.6533585,278.2585754z"></path>
              </g>
              <g>
                <g>
                  <ellipse cx="86.38" cy="265.047" rx="7.176" ry="12.389" style="fill:#fff" transform="rotate(-89.838 86.38 265.047)"></ellipse>
                  <path d="M86.41996,272.5652161c-3.2353516,0-6.4746094-0.7138672-8.9462891-2.140625
									c-2.46875-1.4248047-3.8300781-3.3408203-3.8330078-5.3935547
									c-0.0029297-2.0400391,1.3378906-3.9443359,3.7744141-5.3603516c4.9121094-2.8535156,12.9296875-2.8554688,17.8710938,0
									c2.46875,1.4238281,3.8291016,3.3398438,3.8320312,5.3935547c0.0039062,2.0410156-1.3369141,3.9443359-3.7734375,5.3603516
									C92.88871,271.8513489,89.6562881,272.5652161,86.41996,272.5652161z M86.3398819,258.2195129
									c-3.109375,0-6.2138672,0.6855469-8.5732422,2.0566406c-2.2119141,1.2851562-3.4287109,2.9736328-3.4257812,4.7529297
									c0.0029297,1.7939453,1.2392578,3.4941406,3.4824219,4.7900391c4.7490234,2.7392578,12.4501953,2.7431641,17.1699219,0
									c2.2119141-1.2851562,3.4277344-2.9736328,3.4257812-4.7539062
									c-0.0029297-1.7939453-1.2392578-3.4941406-3.4824219-4.7890625l0,0
									C92.5615616,258.9050598,89.4482803,258.2195129,86.3398819,258.2195129z"></path>
                </g>
              </g>
            </g>
            <g>
              <g>
                <g style="enable-background:new">
                  <g>
                    <g>
                      <path d="M89.3654633,246.9558868l-0.0423584,17.928299c-0.001297,0.4602051-0.3044128,0.9199219-0.9101562,1.2719421
											c-1.2170563,0.7072754-3.1925735,0.7072449-4.4175949,0c-0.6175842-0.3565674-0.9259186-0.8236084-0.9245911-1.2897644
											l0.0423508-17.9282837c-0.0013199,0.466156,0.3070145,0.933197,0.9245911,1.2897644
											c1.2250214,0.7072601,3.2005386,0.7072601,4.4176025-0.0000153
											C89.0610504,247.8758087,89.3641586,247.4161072,89.3654633,246.9558868z"></path>
                      <path d="M86.2070694,267.0398254c-0.8574219,0-1.7158203-0.1933594-2.3867188-0.5810547
											c-0.7109375-0.4101562-1.1015625-0.9755859-1.0996094-1.59375l0.0429688-17.9228516c0-0.0019531,0-0.0039062,0-0.0058594
											c0-0.1923828,0.1572266-0.3476562,0.3496094-0.3476562h0.0009766c0.1933594,0,0.3496094,0.1572266,0.3486328,0.3505859
											l0,0c-0.0009766,0.3554688,0.265625,0.7050781,0.75,0.9863281c1.1240234,0.6474609,2.9482422,0.6484375,4.0664062,0
											c0.4736328-0.2753906,0.7353516-0.6201172,0.7363281-0.9707031l0,0c0-0.1923828,0.15625-0.3486328,0.3496094-0.3486328
											h0.0009766c0.1933594,0,0.3496094,0.1572266,0.3486328,0.3505859l0,0l-0.0419922,17.9287109
											c-0.0019531,0.6103516-0.3876953,1.1689453-1.0839844,1.5732422
											C87.9228897,266.8454895,87.0654678,267.0398254,86.2070694,267.0398254z M83.4599991,248.2546692L83.41996,264.8669739
											c0,0.3564453,0.265625,0.7060547,0.75,0.9863281c1.1269531,0.6484375,2.9501953,0.6484375,4.0673828,0
											c0.4726562-0.2744141,0.734375-0.6191406,0.7363281-0.9707031l0.0380859-16.6132812
											c-0.1132812,0.0927734-0.2412109,0.1796875-0.3808594,0.2617188c-1.3320312,0.7724609-3.4277344,0.7744141-4.7675781,0
											C83.7148819,248.4450989,83.5801163,248.353302,83.4599991,248.2546692z"></path>
                    </g>
                  </g>
                </g>
              </g>
            </g>
          </g>
        </g>
        <g>
          <path d="M101.0026093,247.9229889c0,8.0712738-6.5513382,14.6226044-14.6228027,14.6226044
					s-14.6228027-6.5513306-14.6228027-14.6226044s6.5513382-27.4619751,14.6228027-27.4619751
					S101.0026093,239.8517151,101.0026093,247.9229889z"></path>
        </g>
        <g>
          <path d="M100.9974518,247.9267883c0,8.0625153-6.5482254,14.6211853-14.6211929,14.6211853
					c-1.6292801,0-3.2060394-0.2715454-4.6680527-0.7624207c0.4492645,0.0418091,0.8980179,0.0626526,1.3574753,0.0626526
					c8.0729675,0,14.6319046-6.5481567,14.6319046-14.6212006c0-7.1330109-5.1280212-23.1223907-11.8955307-26.7358704
					c0.1881714-0.0209045,0.3865433-0.0313568,0.5742035-0.0313568
					C94.4492264,220.4597778,100.9974518,239.8537598,100.9974518,247.9267883z" style="fill:#fff"></path>
        </g>
        <g>
          <path d="M86.379921,262.8952942c-8.2558594,0-14.9726562-6.7167969-14.9726562-14.9726562
					c0-8.0654297,6.4804688-27.8115234,14.9726562-27.8115234s14.9726562,19.7460938,14.9726562,27.8115234
					C101.3525772,256.1784973,94.6357803,262.8952942,86.379921,262.8952942z M86.379921,220.8103333
					c-7.9433594,0-14.2734375,19.4697266-14.2734375,27.1123047c0,7.8701172,6.4033203,14.2734375,14.2734375,14.2734375
					s14.2734375-6.4033203,14.2734375-14.2734375C100.6533585,240.2800598,94.3232803,220.8103333,86.379921,220.8103333z"></path>
        </g>
      </g>
    </g>
    <g>
      <g>
        <g>
          <path d="M294.6224976,239.7593079l-0.0290222,12.3622284
					c-0.002655,0.6913452-0.456543,1.3801117-1.3616638,1.9052429l-65.6779175,38.1670685
					c-1.8260956,1.0608215-4.7895203,1.0608215-6.6261749,0l-22.8811798-13.2091675
					c-0.9236145-0.5330811-1.3854065-1.2323303-1.3854065-1.9316711l0.0290222-12.3569641
					c0,0.6993408,0.4618073,1.3959656,1.3827515,1.9263916l22.8812103,13.2118835
					c1.8366394,1.0608521,4.8027191,1.0608521,6.6261597,0l65.6779327-38.1697693
					C294.1659546,241.1394196,294.6198425,240.4506531,294.6224976,239.7593079z" style="fill:#fff"></path>
        </g>
        <g>
          <path d="M224.2451477,293.3464661c-1.2558594,0-2.5117188-0.2832031-3.4921875-0.8496094l-22.8808594-13.2089844
					c-1.0068359-0.5800781-1.5605469-1.375-1.5605469-2.2353516l0.0292969-12.3574219
					c0-0.1923828,0.15625-0.3486328,0.3496094-0.3486328l0,0c0.1933594,0,0.3496094,0.15625,0.3496094,0.3496094
					c0,0.5976562,0.4296875,1.1738281,1.2080078,1.6240234l22.8808594,13.2119141
					c1.7363281,1.0009766,4.5507812,1.0019531,6.2753906,0l65.6777344-38.1699219
					c0.765625-0.4433594,1.1884766-1.0126953,1.1904297-1.6035156c0-0.1933594,0.1572266-0.3486328,0.3496094-0.3486328h0.0009766
					c0.1933594,0,0.3496094,0.1572266,0.3486328,0.3505859l0,0l0,0l-0.0283203,12.3623047
					c-0.0029297,0.8505859-0.5488281,1.6337891-1.5361328,2.2070312l-65.6777344,38.1669922
					C226.7539368,293.0632629,225.5000305,293.3464661,224.2451477,293.3464661z M197.0371399,266.2693176l-0.0263672,10.7841797
					c0,0.5996094,0.4306641,1.1777344,1.2109375,1.6289062l22.8808594,13.2089844
					c1.734375,1.0009766,4.5488281,1.0019531,6.2753906,0l65.6777344-38.1669922
					c0.7636719-0.4433594,1.1855469-1.0126953,1.1884766-1.6044922l0.0244141-10.7871094
					c-0.2275391,0.2314453-0.5068359,0.4453125-0.8359375,0.6347656l-65.6767578,38.1699219
					c-1.9179688,1.1152344-5.0488281,1.1142578-6.9765625,0l-22.8808594-13.2119141
					C197.5576477,266.7292786,197.2695618,266.5085754,197.0371399,266.2693176z"></path>
        </g>
        <g>
          <path d="M293.2375488,237.8273621c1.8364563,1.0602722,1.8461304,2.7781372,0.0216064,3.8384399
					l-65.6777344,38.1677246c-1.8245392,1.0603027-4.7902679,1.0603027-6.6267242,0.0000305l-22.8805847-13.2101135
					c-1.8364563-1.0602722-1.8461304-2.7781372-0.0215912-3.8384399l65.6777344-38.1677246
					c1.8245239-1.0603027,4.7902527-1.060318,6.626709-0.0000305L293.2375488,237.8273621z" style="fill:#10b981"></path>
        </g>
        <g>
          <path d="M293.2545471,241.6612549l-65.6699066,38.1699829c-1.8300781,1.0600586-4.7900391,1.0600586-6.6298828,0
					l-22.8798828-13.2099609c-1.7802734-1.0300293-1.8500977-2.6799927-0.1801758-3.7399902
					c0.0600586,0.0499878,0.1201172,0.0799561,0.1801758,0.1199951l22.8798828,13.2099609
					c1.8398438,1.0599976,4.7998047,1.0599976,6.6298828,0l65.6699066-38.1699829
					c0.0498047-0.0299683,0.1000977-0.0599976,0.1499023-0.0999756
					C295.0748596,239.0012817,295.0245667,240.6312866,293.2545471,241.6612549z" style="fill:#fff"></path>
        </g>
        <g>
          <path d="M224.2724915,280.9724426c-1.2636719,0-2.5273438-0.2783203-3.4921875-0.8359375l-22.8808594-13.2099609
					c-1.0039062-0.5791016-1.5576172-1.3710938-1.5595703-2.2285156c-0.0009766-0.8525391,0.5449219-1.6396484,1.5371094-2.2158203
					l65.6777344-38.1679688c1.9179688-1.1132812,5.0478516-1.1132812,6.9775391,0l22.8798828,13.2099609
					c1.0039062,0.5791016,1.5576172,1.3710938,1.5595703,2.2285156c0.0009766,0.8525391-0.5449219,1.6396484-1.5371094,2.2158203
					l-65.6777344,38.1679688C226.7978821,280.6941223,225.5361633,280.9724426,224.2724915,280.9724426z M267.039093,224.1687317
					c-1.1367188,0-2.2705078,0.25-3.1328125,0.7509766l-65.6777344,38.1679688
					c-0.7675781,0.4453125-1.1894531,1.0175781-1.1884766,1.609375c0.0009766,0.5976562,0.4306641,1.1738281,1.2089844,1.6240234
					l22.8808594,13.2099609c1.7363281,1.0019531,4.5507812,1.0019531,6.2753906,0l65.6777344-38.1679688
					c0.7675781-0.4453125,1.1894531-1.0175781,1.1884766-1.609375c-0.0009766-0.5976562-0.4306641-1.1738281-1.2089844-1.6240234
					l-22.8798828-13.2099609C269.3144836,224.4187317,268.1758118,224.1687317,267.039093,224.1687317z"></path>
        </g>
        <g>
          <path d="M224.2451477,287.493927c-1.2558594,0-2.5117188-0.2832031-3.4921875-0.8496094l-18.1162109-10.4580078
					c-0.1679688-0.0966797-0.2246094-0.3105469-0.1279297-0.4775391c0.0957031-0.1669922,0.3115234-0.2265625,0.4775391-0.1279297
					l18.1162109,10.4580078c1.734375,1.0009766,4.5488281,1.0019531,6.2753906,0l57.6132812-33.4804688
					c0.1679688-0.0966797,0.3808594-0.0410156,0.4785156,0.1269531c0.0966797,0.1669922,0.0400391,0.3808594-0.1269531,0.4785156
					l-57.6132812,33.4804688C226.7539368,287.2107239,225.5000305,287.493927,224.2451477,287.493927z"></path>
        </g>
      </g>
      <g>
        <g>
          <path d="M263.8310852,232.7966614c-0.0595703,0-0.1201172-0.0146484-0.1748047-0.046875l-6.8105469-3.9296875
					c-0.1679688-0.0957031-0.2246094-0.3105469-0.1279297-0.4775391c0.0957031-0.1679688,0.3115234-0.2246094,0.4775391-0.1279297
					l6.8105469,3.9296875c0.1679688,0.0957031,0.2246094,0.3105469,0.1279297,0.4775391
					C264.0693665,232.7341614,263.952179,232.7966614,263.8310852,232.7966614z"></path>
        </g>
        <g>
          <path d="M254.1103821,238.4460754c-0.0595703,0-0.1201172-0.0146484-0.1748047-0.046875l-6.8095703-3.9296875
					c-0.1679688-0.0966797-0.2246094-0.3105469-0.1279297-0.4775391c0.0957031-0.1679688,0.3115234-0.2246094,0.4775391-0.1279297
					l6.8095703,3.9296875c0.1679688,0.0966797,0.2246094,0.3105469,0.1279297,0.4775391
					C254.3486633,238.3835754,254.2314758,238.4460754,254.1103821,238.4460754z"></path>
        </g>
        <g>
          <path d="M244.3906555,244.0964661c-0.0595703,0-0.1201172-0.0146484-0.1748047-0.046875l-6.8095703-3.9296875
					c-0.1679688-0.0966797-0.2246094-0.3105469-0.1279297-0.4775391c0.0966797-0.1679688,0.3125-0.2255859,0.4775391-0.1279297
					l6.8095703,3.9296875c0.1679688,0.0966797,0.2246094,0.3105469,0.1279297,0.4775391
					C244.6289368,244.0339661,244.5117493,244.0964661,244.3906555,244.0964661z"></path>
        </g>
        <g>
          <path d="M234.670929,249.7468567c-0.0595703,0-0.1201172-0.0146484-0.1748047-0.046875l-6.8105469-3.9306641
					c-0.1679688-0.0966797-0.2246094-0.3105469-0.1279297-0.4775391c0.0957031-0.1669922,0.3115234-0.2255859,0.4775391-0.1279297
					l6.8105469,3.9306641c0.1679688,0.0966797,0.2246094,0.3105469,0.1279297,0.4775391
					C234.9092102,249.6843567,234.7920227,249.7468567,234.670929,249.7468567z"></path>
        </g>
        <g>
          <path d="M224.9512024,255.3962708c-0.0595703,0-0.1201172-0.0146484-0.1748047-0.046875l-6.8105469-3.9296875
					c-0.1679688-0.0957031-0.2246094-0.3105469-0.1279297-0.4775391s0.3115234-0.2255859,0.4775391-0.1279297l6.8105469,3.9296875
					c0.1679688,0.0957031,0.2246094,0.3105469,0.1279297,0.4775391
					C225.1894836,255.3337708,225.0722961,255.3962708,224.9512024,255.3962708z"></path>
        </g>
        <g>
          <path d="M215.2304993,261.0466614c-0.0595703,0-0.1201172-0.0146484-0.1748047-0.046875l-6.8095703-3.9296875
					c-0.1679688-0.0966797-0.2246094-0.3105469-0.1279297-0.4775391c0.0957031-0.1679688,0.3115234-0.2265625,0.4775391-0.1279297
					l6.8095703,3.9296875c0.1679688,0.0966797,0.2246094,0.3105469,0.1279297,0.4775391
					C215.4687805,260.9841614,215.351593,261.0466614,215.2304993,261.0466614z"></path>
        </g>
      </g>
      <g>
        <g>
          <g>
            <path d="M276.9978027,233.3961334c2.191803,1.2654419,2.2035217,3.3237152,0.0257874,4.5892792
						s-5.7311707,1.2655029-7.9229736,0.000061c-2.1920166-1.265564-2.2037354-3.3238525-0.026001-4.5894012
						C271.2523499,232.1305084,274.8057556,232.1305695,276.9978027,233.3961334z"></path>
          </g>
        </g>
        <g>
          <g>
            <path d="M278.5751343,236.1889038c-0.2558899-0.3614349-0.6474609-0.6928101-1.1445923-0.9789581
						c-2.1836548-1.2650146-5.7380371-1.2650146-7.9217224,0c-0.87323,0.512085-1.4005127,1.159668-1.551239,1.8223267
						c-0.9486389-1.1897278-0.572113-2.6506348,1.1148071-3.6294861c2.1836548-1.2651062,5.7377014-1.2651062,7.9213562,0
						C278.3041687,234.1557922,278.8461304,235.19487,278.5751343,236.1889038z" style="fill:#fff"></path>
          </g>
        </g>
        <g>
          <g>
            <path d="M273.0674133,239.2790833c-1.4980469,0-2.9980469-0.3300781-4.1416016-0.9912109
						c-1.1767578-0.6787109-1.8261719-1.6044922-1.8271484-2.6044922c-0.0019531-0.9951172,0.6376953-1.9140625,1.7998047-2.5898438
						c2.2724609-1.3222656,5.984375-1.3232422,8.2744141,0l0,0c1.1767578,0.6787109,1.8251953,1.6044922,1.8261719,2.6044922
						c0.0019531,0.9951172-0.6376953,1.9140625-1.7998047,2.5898438
						C276.0625305,238.9490051,274.5654602,239.2790833,273.0674133,239.2790833z M273.030304,232.7917786
						c-1.3710938,0-2.7402344,0.3027344-3.7802734,0.9072266c-0.9365234,0.5449219-1.4521484,1.2490234-1.4511719,1.9833984
						c0.0009766,0.7402344,0.5253906,1.4501953,1.4765625,2c2.0957031,1.2089844,5.4921875,1.2089844,7.5722656,0
						c0.9375-0.5449219,1.4521484-1.2490234,1.4511719-1.9833984c-0.0009766-0.7402344-0.5253906-1.4501953-1.4755859-2l0,0
						C275.7754211,233.0945129,274.4023743,232.7917786,273.030304,232.7917786z"></path>
          </g>
        </g>
      </g>
    </g>
  </g>
</svg>