<svg xmlns="http://www.w3.org/2000/svg" width="64" height="64" viewBox="0 0 16.933 16.933" id="ecommerce-website">
  <path fill="#ffc100" d="M1.852.53A1.32 1.32 0 0 0 .53 1.851v1.424h15.875V1.852A1.32 1.32 0 0 0 15.081.53H1.852zM4.21 5.56c-.326 0-.583.305-.766.488L1.618 7.872a.43.43 0 0 0 0 .61L2.66 9.523a.43.43 0 0 0 .61 0l.132-.131v-1.07h4.8v1.07l.132.131a.43.43 0 0 0 .61 0l1.042-1.041a.43.43 0 0 0 0-.61L8.16 6.048c-.182-.183-.44-.487-.766-.487h-.502v.49c0 .604-.486 1.09-1.09 1.09a1.09 1.09 0 0 1-1.092-1.09v-.49h-.502zm-.807 4.698v2.631c0 .399.32.719.718.719h3.364c.398 0 .718-.32.718-.719v-2.63h-4.8z"></path>
  <path fill="#00003a" d="M4.628 285.543c-.491 0-.787.398-.954.565l-1.824 1.825a.699.699 0 0 0 0 .983l1.041 1.041c.182.182.393.271.664.066v3.114c0 .54.445.984.985.984h3.363c.54 0 .982-.444.982-.984v-3.116c.17.145.482.118.664-.064l1.043-1.04a.699.699 0 0 0 0-.984l-1.826-1.825c-.167-.167-.462-.565-.953-.565zm0 .53h.238v.226c0 .746.609 1.355 1.355 1.355.747 0 1.356-.609 1.356-1.355v-.227h.236c.162 0 .382.212.58.41l1.824 1.824a.162.162 0 0 1 0 .237l-1.04 1.04c-.08.085-.292.04-.292-.096v-.917a.265.265 0 0 0-.263-.264H5.004c-.353 0-.353.53 0 .53h3.352v1.404H4.084v-1.67a.265.265 0 1 0-.529 0v.96c-.097.126-.22.123-.29.054l-1.04-1.04a.162.162 0 0 1 0-.238l1.824-1.824c.173-.185.353-.41.579-.41zm.767 0h1.652v.226a.818.818 0 0 1-.826.826.818.818 0 0 1-.826-.826zm-1.31 4.696h4.271v2.368a.448.448 0 0 1-.453.455H4.54a.45.45 0 0 1-.456-.455zm7.788-4.767c-.353 0-.353.53 0 .53h2.745c.352 0 .352-.53 0-.53zm0 2.014c-.353 0-.353.53 0 .53h2.745c.352 0 .352-.53 0-.53zm0 2.014c-.353 0-.353.53 0 .53h.595c.353 0 .353-.53 0-.53zm0 2.014c-.353 0-.353.53 0 .53h.595c.353 0 .353-.53 0-.53zm1.438-2.014c-.352 0-.352.53 0 .53h1.323c.353 0 .353-.53 0-.53zm0 2.014c-.352 0-.352.53 0 .53h1.323c.353 0 .353-.53 0-.53zM2.866 281.892c-.353 0-.353.53 0 .53h.595c.353 0 .353-.53 0-.53zm1.885 0c-.353 0-.353.53 0 .53h.595c.353 0 .353-.53 0-.53zm1.736 0c-.353 0-.353.53 0 .53h.595c.353 0 .353-.53 0-.53z" color="#000" font-family="sans-serif" font-weight="400" overflow="visible" style="line-height:normal;font-variant-ligatures:normal;font-variant-position:normal;font-variant-caps:normal;font-variant-numeric:normal;font-variant-alternates:normal;font-feature-settings:normal;text-indent:0;text-align:start;text-decoration-line:none;text-decoration-style:solid;text-decoration-color:#000;text-transform:none;text-orientation:mixed;shape-padding:0;isolation:auto;mix-blend-mode:normal" transform="translate(-.419 -280.248)"></path>
  <path fill="#00003a" d="M7.004.998A6.012 6.012 0 0 0 1.002 7v49.998A6.012 6.012 0 0 0 7.004 63H57a6.012 6.012 0 0 0 6.002-6.002V7A6.012 6.012 0 0 0 57 .998Zm0 2.002H57a3.971 3.971 0 0 1 4.002 4v4.38H6.264c-1.387 0-1.487 2 0 2h54.738v43.618c0 2.233-1.769 4-4.002 4H7.004a3.971 3.971 0 0 1-4.002-4V7c0-2.233 1.769-4 4.002-4z" color="#000" font-family="sans-serif" font-weight="400" overflow="visible" style="line-height:normal;font-variant-ligatures:normal;font-variant-position:normal;font-variant-caps:normal;font-variant-numeric:normal;font-variant-alternates:normal;font-feature-settings:normal;text-indent:0;text-align:start;text-decoration-line:none;text-decoration-style:solid;text-decoration-color:#000;text-transform:none;text-orientation:mixed;shape-padding:0;isolation:auto;mix-blend-mode:normal" transform="scale(.26458)"></path>
</svg>
