<svg xmlns="http://www.w3.org/2000/svg" viewBox="0 0 131 131" id="ecommerce">
  <path fill="#FF704A" d="M130.5 73.298v51.438H87.305v-3.939h39.256V73.298z"></path>
  <circle cx="94.481" cy="77.437" r="2.429" fill="#FDCE3F"></circle>
  <circle cx="118.151" cy="77.437" r="2.429" fill="#8BE1FC"></circle>
  <path fill="#FDCE3F" d="M48.334 106.983h23.554v11.751H48.334z"></path>
  <path fill="#8BE1FC" d="M14.926 99.017a3.172 3.172 0 0 1-3.16 3.16 3.16 3.16 0 0 1-3.16-3.16 3.147 3.147 0 0 1 3.16-3.16 3.16 3.16 0 0 1 3.16 3.16z"></path>
  <path fill="#FF704A" d="M26.16 99.017a3.172 3.172 0 0 1-3.16 3.16 3.16 3.16 0 0 1-3.16-3.16 3.147 3.147 0 0 1 3.16-3.16 3.16 3.16 0 0 1 3.16 3.16z"></path>
  <path fill="#FDCE3F" d="M37.395 99.017a3.172 3.172 0 0 1-3.16 3.16 3.16 3.16 0 0 1-3.161-3.16 3.147 3.147 0 0 1 3.16-3.16 3.16 3.16 0 0 1 3.16 3.16z"></path>
  <circle cx="34.614" cy="52.503" r="4.076" fill="#FDCE3F"></circle>
  <circle cx="65.796" cy="52.503" r="4.076" fill="#8BE1FC"></circle>
  <path fill="#8BE1FC" d="m109.737 108.421-2.832 2.368 3.538 2.563-1.741 2.403-3.538-2.563-1.367 3.429-6.042-10.636z"></path>
  <path fill="#FF704A" d="M106.357 29.533a3.583 3.583 0 0 1-3.573 3.584c-.655 0-1.266-.17-1.786-.486a3.592 3.592 0 0 0 1.786-3.098 3.592 3.592 0 0 0-1.786-3.098 3.412 3.412 0 0 1 1.786-.486 3.583 3.583 0 0 1 3.573 3.584z"></path>
  <path fill="#8BE1FC" d="M102.784 29.533a3.592 3.592 0 0 1-1.786 3.098 3.472 3.472 0 0 1-1.786.486c-1.99 0-3.596-1.606-3.596-3.584s1.606-3.584 3.596-3.584c.644 0 1.255.17 1.786.486a3.592 3.592 0 0 1 1.786 3.098z"></path>
  <path fill="#242142" d="M45.827 106.092v9.779h-6.05v1.97h38.2v-1.97h-6.626v-9.779h7.998v-1.97c-3.644 0-3.848-.002-73.644 0a3.237 3.237 0 0 1-3.233-3.233V89.944h76.877v-1.97H2.47V29.425a3.249 3.249 0 0 1 3.25-3.24h54.006v6.19a3.25 3.25 0 0 0 3.246 3.246h46.004a3.25 3.25 0 0 0 3.246-3.247v-6.174a3.223 3.223 0 0 1 3.06 3.225v35.916h1.97V29.426a5.193 5.193 0 0 0-5.03-5.195V9.51a3.25 3.25 0 0 0-3.246-3.246H62.972a3.25 3.25 0 0 0-3.246 3.246v14.706H5.719C2.841 24.216.5 26.553.5 29.426l.002 71.463a5.21 5.21 0 0 0 5.203 5.203h40.122zm23.555 9.779H47.797v-9.779h21.585v9.779zm39.594-82.218H62.972a1.278 1.278 0 0 1-1.276-1.278V20.458h48.557v11.917c0 .704-.573 1.278-1.277 1.278zm-47.28-20.185h48.557v5.02H61.696v-5.02zm1.276-5.234h46.004c.704 0 1.277.572 1.277 1.276v1.989H61.696v-1.99c0-.703.572-1.275 1.276-1.275z"></path>
  <path fill="#242142" d="M5.634 97.03c0 2.287 1.86 4.146 4.145 4.146s4.146-1.859 4.146-4.145c0-2.286-1.86-4.145-4.146-4.145s-4.145 1.859-4.145 4.145zm6.32 0c0 1.2-.975 2.176-2.175 2.176s-2.175-.976-2.175-2.175c0-1.22.955-2.176 2.175-2.176 1.2 0 2.176.977 2.176 2.176zm4.914 0c0 2.287 1.86 4.146 4.146 4.146s4.145-1.859 4.145-4.145c0-2.286-1.86-4.145-4.145-4.145s-4.146 1.859-4.146 4.145zm6.321 0c0 1.2-.976 2.176-2.175 2.176-1.2 0-2.176-.976-2.176-2.175 0-1.22.956-2.176 2.176-2.176 1.2 0 2.175.977 2.175 2.176zm4.914 0a4.15 4.15 0 0 0 4.145 4.146 4.15 4.15 0 0 0 4.145-4.145 4.15 4.15 0 0 0-4.145-4.145 4.15 4.15 0 0 0-4.145 4.145zm6.32 0c0 1.2-.975 2.176-2.175 2.176-1.2 0-2.176-.976-2.176-2.175 0-1.22.956-2.176 2.176-2.176 1.2 0 2.175.977 2.175 2.176zm47.955-27.673V120.8c0 .545.441.985.985.985h43.197c.544 0 .985-.44.985-.985V69.357a.985.985 0 0 0-.985-.985H83.363a.985.985 0 0 0-.985.985zm1.97.984h41.227v49.476H84.348V70.34z"></path>
  <path fill="#242142" d="M116.797 72.607a3.418 3.418 0 0 0-3.414 3.414c0 1.538 1.03 2.827 2.43 3.252v3.245c0 5.985-4.868 10.854-10.853 10.854-5.985 0-10.854-4.869-10.854-10.854v-3.244c1.403-.424 2.435-1.714 2.435-3.253a3.417 3.417 0 0 0-3.414-3.414 3.418 3.418 0 0 0-3.414 3.414c0 1.535 1.026 2.822 2.424 3.25v3.247c0 7.07 5.752 12.824 12.823 12.824s12.823-5.753 12.823-12.824v-3.246c1.4-.426 2.428-1.715 2.428-3.251a3.417 3.417 0 0 0-3.414-3.414zm-25.115 3.414a1.445 1.445 0 1 1 1.445 1.445 1.446 1.446 0 0 1-1.445-1.445zm25.115 1.444c-.796 0-1.445-.648-1.445-1.444s.649-1.444 1.445-1.444a1.445 1.445 0 0 1 0 2.888zM60.002 65.386l1.88.585L58.4 77.174l-1.88-.585zM34.447 65.386l3.487 11.202-1.88.585-3.487-11.201zM46.241 65.679h1.97V76.88h-1.97z"></path>
  <path fill="#242142" d="M93.67 101.735a.985.985 0 0 0 .136-1.386l-2.131-2.6a.985.985 0 0 0-1.523 1.248l2.131 2.6a.985.985 0 0 0 1.386.138zm-2.563 2.92-3.317.53a.984.984 0 1 0 .31 1.945l3.317-.53a.984.984 0 1 0-.31-1.944zm3.656 3.923a.985.985 0 0 0-1.274.562l-1.216 3.135a.985.985 0 1 0 1.836.711l1.216-3.134a.985.985 0 0 0-.562-1.274zm4.117-8.024 1.198-3.148a.985.985 0 1 0-1.84-.7l-1.199 3.148a.985.985 0 1 0 1.841.7zm7.744 8.815 1.863-1.556a.986.986 0 0 0-.436-1.72l-11.982-2.437a.986.986 0 0 0-1.053 1.451l6.041 10.637c.176.31.504.498.857.498l.067-.002a.984.984 0 0 0 .848-.619l.898-2.253 2.515 1.82a.983.983 0 0 0 1.375-.219l1.74-2.403a.984.984 0 0 0-.219-1.375l-2.514-1.822zm-.024 3.647-2.741-1.985a.984.984 0 0 0-1.493.433l-.608 1.524-3.96-6.97 7.855 1.596-1.263 1.055a.987.987 0 0 0 .055 1.553l2.74 1.986-.585.808zm-7.867-89.945a4.503 4.503 0 0 0-1.783-.368c-2.525 0-4.58 2.05-4.58 4.568a4.58 4.58 0 0 0 4.58 4.57c.621 0 1.229-.128 1.784-.368 2.934 1.279 6.346-.883 6.346-4.202 0-3.313-3.405-5.48-6.347-4.2zm-4.393 4.2a2.607 2.607 0 0 1 2.61-2.598c3.413 0 3.42 5.198 0 5.198a2.608 2.608 0 0 1-2.61-2.6zm6.353 2.594a4.562 4.562 0 0 0 0-5.186c3.204.21 3.202 4.976 0 5.186zm-41.815 6.179H35.574a4.93 4.93 0 0 0-4.924 4.924v3.594a5.071 5.071 0 0 0-3.977 3.977h-10.2a.985.985 0 0 0-.985.984V59.72c0 .544.441.985.985.985h2.255l6.98 22.427a.985.985 0 0 0 .94.692h41.156c.43 0 .812-.28.94-.692l6.98-22.427h2.254c.544 0 .985-.44.985-.985V49.523a.985.985 0 0 0-.985-.984h-10.2a5.071 5.071 0 0 0-3.976-3.977v-3.594a4.93 4.93 0 0 0-4.924-4.924zm-23.304 1.97h23.304a2.958 2.958 0 0 1 2.954 2.954v3.594a5.071 5.071 0 0 0-3.976 3.977h-21.26a5.071 5.071 0 0 0-3.977-3.977v-3.594a2.958 2.958 0 0 1 2.955-2.955zm-3.94 8.418a3.094 3.094 0 0 1 3.091 3.091c0 1.705-1.386 3.09-3.09 3.09s-3.091-1.385-3.091-3.09a3.095 3.095 0 0 1 3.09-3.09zm35.444 35.423H27.373l-6.583-21.15h52.871l-6.583 21.15zm9.915-23.12H17.458v-8.227h9.212c.064.099.865 4.075 4.965 4.075 2.719 0 4.116-1.578 4.964-4.075h21.253l.006.019c.463 2.298 2.578 4.056 4.959 4.056 3.475 0 4.391-2.919 4.964-4.075h9.212v8.227zm-11.085-9.212c0 1.705-1.387 3.09-3.091 3.09s-3.091-1.385-3.091-3.09c0-1.704 1.387-3.09 3.09-3.09s3.092 1.386 3.092 3.09z"></path>
</svg>
