<svg xmlns="http://www.w3.org/2000/svg" viewBox="235 650 1625 712" preserveAspectRatio="xMidYMid meet" role="img" aria-label="FXN Holdings">
<!-- FXN mark + HOLDINGS wordmark. Recolored to site scheme: navy #0b1f3a, emerald accent #10b981. -->
<path fill="#0b1f3a" d="M 1358.99 667.272 C 1361.83 667.245 1367.68 666.845 1369.61 668.497 C 1379.22 676.75 1389.24 685.627 1398.68 693.957 L 1457.83 745.83 L 1615.36 885.42 C 1645.09 911.866 1676.45 940.599 1706.8 965.98 C 1708.35 868.055 1706.93 766.021 1706.93 667.791 L 1816.2 667.679 C 1815.52 720.894 1816.1 775.27 1816.09 828.595 L 1816.15 1149.39 C 1796.66 1149.9 1773.62 1149.94 1754.18 1149.44 L 1511.02 935.659 L 1392.16 832.257 C 1392.92 868.416 1392.32 906.677 1392.32 943 L 1392.33 1149.48 C 1368.01 1150.28 1339.99 1149.65 1315.45 1149.64 L 1171.74 1149.57 C 1130.05 1102.58 1083.48 1050.66 1043.5 1002.72 C 1068.02 975.102 1094.08 947.297 1119.07 919.999 C 1141.82 944.789 1164.69 971.769 1186.84 997.23 L 1282.84 1107.23 L 1282.98 751.234 C 1295.89 735.503 1312.61 718.444 1325.99 702.721 C 1332.05 695.598 1352.93 671.855 1358.99 667.272 z"/>
<path fill="#0b1f3a" d="M 332.03 667.835 C 380.984 666.868 432.826 667.687 481.978 667.69 L 719.39 667.753 C 747.048 702.326 783.437 739.38 812.611 774.253 C 769.859 775.23 724.528 774.455 681.473 774.454 L 435.771 774.359 C 432.879 801.463 428.889 829.169 426.527 856.25 L 676.659 856.181 L 715.244 856.302 C 704.957 887.9 694.183 926.536 684.793 958.864 L 414.205 958.769 C 405.825 1021.09 398.447 1086.94 391.224 1149.48 C 354.941 1150.44 314.799 1149.64 278.21 1149.67 L 332.03 667.835 z"/>
<path fill="#10b981" d="M 1159.26 667.926 C 1175.77 667.153 1197.4 667.837 1214.56 667.84 L 1320.53 668.039 C 1303.97 685.117 1285.74 705.928 1269.25 723.729 L 1153.4 848.432 L 876.798 1144.32 L 871.49 1149.76 C 822.95 1148.91 770.623 1151.17 722.606 1149.12 C 737.51 1130.9 758.003 1109.46 774.253 1091.57 L 858.994 997.85 L 1159.26 667.926 z"/>
<path fill="#0b1f3a" d="M 751.455 667.81 C 798.961 667.214 847.588 667.705 895.18 667.68 C 933.23 705.269 977.547 755.019 1013.65 794.724 C 1000.57 807.852 987.407 822.615 974.79 836.308 L 939.697 874.917 C 878.064 806.105 812.022 737.113 751.455 667.81 z"/>
<path fill="#0b1f3a" d="M 708.871 1251.7 C 734.736 1245.94 760.37 1262.25 766.113 1288.12 C 771.856 1313.99 755.531 1339.61 729.659 1345.34 C 703.81 1351.06 678.213 1334.75 672.475 1308.91 C 666.737 1283.06 683.028 1257.45 708.871 1251.7 z"/>
<path fill="#ffffff" d="M 713.878 1267.85 C 730.838 1264.9 746.971 1276.27 749.898 1293.24 C 752.826 1310.2 741.437 1326.32 724.471 1329.23 C 707.529 1332.14 691.436 1320.77 688.513 1303.83 C 685.59 1286.89 696.942 1270.79 713.878 1267.85 z"/>
<path fill="#0b1f3a" d="M 969.43 1252.97 C 989.602 1252.75 1019.88 1249.46 1035.97 1263.12 C 1057.36 1281.29 1056.69 1310.83 1038.92 1331.05 C 1020.2 1348.04 993.854 1343.97 969.309 1343.95 C 969.089 1313.62 969.129 1283.29 969.43 1252.97 z"/>
<path fill="#ffffff" d="M 986.494 1268.08 C 998.669 1267.99 1015.95 1266.83 1025.11 1275.87 C 1038.45 1289.04 1036.93 1308.14 1024.79 1321.22 C 1013.09 1330.58 1000.44 1329.01 986.369 1328.63 C 987.033 1309.86 986.434 1287.28 986.494 1268.08 z"/>
<path fill="#0b1f3a" d="M 1279.15 1252.78 L 1296.02 1252.92 L 1296 1343.96 L 1282.35 1343.91 C 1266.68 1323.96 1248.17 1302.73 1231.78 1283.19 C 1231.35 1303.17 1231.54 1323.8 1231.47 1343.83 L 1214.72 1343.96 C 1214.92 1313.57 1214.93 1283.19 1214.75 1252.8 L 1227.49 1253 C 1244.92 1273.07 1262.08 1293.38 1278.96 1313.92 C 1279.19 1293.54 1279.25 1273.16 1279.15 1252.78 z"/>
<path fill="#0b1f3a" d="M 1403.71 1252.25 C 1405 1252.12 1406.29 1252 1407.58 1251.9 C 1424.89 1250.49 1435.9 1253.73 1449.15 1264.92 L 1438.97 1277.61 C 1420.86 1262.87 1396.02 1261.67 1386.5 1286.18 C 1383.11 1294.96 1383.4 1304.74 1387.31 1313.31 C 1396.76 1333.94 1417.49 1332.88 1435.01 1323.79 L 1435.02 1307.79 C 1428.8 1307.9 1420.45 1308.97 1414.76 1307.38 C 1412.09 1304.77 1412.95 1305.52 1412.63 1300.6 C 1412.91 1297.09 1412.41 1295.93 1414.1 1293.4 C 1422.42 1292.43 1442.15 1293.05 1451.24 1293.14 L 1451.17 1331.83 C 1433.18 1344.61 1412.34 1351.2 1391.17 1340.55 C 1380 1334.93 1371.69 1324.89 1368.25 1312.86 C 1359.84 1283.98 1375.47 1259.99 1403.71 1252.25 z"/>
<path fill="#0b1f3a" d="M 582.775 1252.91 L 599.837 1252.85 L 599.819 1343.8 L 582.785 1343.99 L 582.714 1305.94 L 539.534 1305.94 C 539.656 1318.62 539.653 1331.29 539.527 1343.97 L 522.825 1343.89 C 522.275 1314.11 522.748 1282.75 522.725 1252.89 L 539.661 1252.95 L 539.708 1290.61 C 554.07 1290.8 568.433 1290.89 582.797 1290.87 L 582.775 1252.91 z"/>
<path fill="#0b1f3a" d="M 1543.67 1252.24 C 1561.29 1250.53 1571.34 1253.36 1585.61 1263.13 L 1576.99 1276.17 C 1567.16 1270.25 1552.27 1262.03 1540.88 1270.11 C 1538.24 1271.98 1536.63 1273.7 1536.14 1277.01 C 1539.81 1289.79 1567.1 1290.21 1578.05 1299.2 C 1591.33 1310.13 1591.55 1322.47 1580.66 1335.97 C 1574.93 1343.07 1565.51 1344.65 1556.62 1345.33 C 1537.29 1344.85 1531.47 1341.87 1516.13 1330.86 C 1519.61 1326.88 1523.29 1321.84 1526.55 1317.59 C 1536.5 1326.55 1556.64 1337.2 1568.85 1324.46 C 1571.2 1322.01 1571.7 1320.33 1571.52 1317.03 C 1563.06 1303.03 1526.49 1307.24 1521.14 1286.04 C 1516.26 1266.71 1526.19 1257.06 1543.67 1252.24 z"/>
<path fill="#0b1f3a" d="M 838.117 1252.92 L 855.101 1252.92 L 855.058 1328.59 C 870.298 1328.92 886.185 1328.75 901.459 1328.76 L 901.412 1343.88 L 838.127 1343.94 C 837.75 1313.81 838.082 1283.09 838.117 1252.92 z"/>
<path fill="#0b1f3a" d="M 1123.19 1252.91 L 1140.28 1253.03 C 1140.79 1282.94 1140.44 1313.85 1140.49 1343.84 L 1123.14 1343.81 C 1122.71 1313.92 1123.16 1282.89 1123.19 1252.91 z"/>
<path fill="#10b981" d="M 248.544 1290.59 C 290.414 1291.17 332.632 1290.34 374.48 1290.75 C 392.584 1290.93 416.877 1289.73 434.334 1290.98 C 436.375 1293.46 435.543 1294.42 435.485 1298.64 C 387.774 1300.03 339.059 1297.85 291.249 1298.85 C 278.23 1299.12 263.24 1299.25 250.335 1298.5 C 248.27 1295.98 248.891 1294.57 248.544 1290.59 z"/>
<path fill="#10b981" d="M 1665.22 1290.86 C 1709.15 1289.77 1753.82 1291.32 1797.84 1290.67 C 1812.86 1290.45 1833.06 1289.73 1847.76 1291.14 C 1849.58 1294.11 1848.88 1294.64 1848.88 1298.8 L 1730.33 1298.81 C 1713.44 1298.84 1682.64 1299.8 1666.65 1298.46 C 1664.61 1295.4 1665.33 1295.28 1665.22 1290.86 z"/>
</svg>
