<svg xmlns="http://www.w3.org/2000/svg" xml:space="preserve" id="cardboard-box-and-circular-return-arrow-for-logistics-recycling-symbol" x="0" y="0" style="enable-background:new 0 0 4000 4000" version="1.1" viewBox="0 0 4000 4000">
  <g>
    <g style="opacity:.2">
      <path d="M2887.248,3174.46c-2.19,1.314-4.596,2.617-7.221,3.931l-280.229-161.654
			c2.627-1.314,4.812-2.627,7.221-3.941c346.729-201.475,361.387-522.828,44.846-735.678c-15.534-10.724-31.94-20.786-49.22-30.848
			c-16.845-9.624-34.127-19.034-51.848-27.558l101.068,58.406l-754.275,438.166l-707.682-408.418
			c-270.384,212.199-238.443,513.855,94.286,705.93c182.443,105.661,421.108,158.161,659.113,158.385V3400
			c-339.074-0.662-678.585-75.914-937.591-225.54c-520.862-300.577-523.487-789.278-6.126-1089.855
			c237.351-138.037,543.611-212.626,855.559-224.002l37.626-21.876l35.439,20.338c344.324-1.527,689.961,73.724,952.908,225.54
			C3401.763,2385.182,3404.826,2873.883,2887.248,3174.46z" style="fill:#34d399"></path>
    </g>
    <g style="opacity:.2">
      <polygon points="3347.855 1491.432 3172.095 1593.573 2995.186 1491.434 3170.946 1389.294" style="fill:#34d399"></polygon>
    </g>
    <g>
      <g style="enable-background:new">
        <g>
          <polygon points="3400.046 1253.7 3399.47 1457.003 3223.71 1559.143 3224.286 1355.841" style="fill:#fff;stroke:#0b1f3a;stroke-width:10.9375;stroke-linecap:round;stroke-linejoin:round;stroke-miterlimit:10"></polygon>
        </g>
        <g>
          <polygon points="3224.286 1355.841 3223.71 1559.143 3046.801 1457.005 3047.377 1253.702" style="fill:#34d399;stroke:#0b1f3a;stroke-width:10.9375;stroke-linecap:round;stroke-linejoin:round;stroke-miterlimit:10"></polygon>
        </g>
        <g>
          <polygon points="3400.046 1253.7 3224.286 1355.841 3047.377 1253.702 3223.137 1151.562" style="fill:#fff;stroke:#0b1f3a;stroke-width:10.9375;stroke-linecap:round;stroke-linejoin:round;stroke-miterlimit:10"></polygon>
        </g>
      </g>
    </g>
    <g style="opacity:.2">
      <polygon points="3043.611 1042.309 2814.876 1175.235 2584.646 1042.311 2813.38 909.385" style="fill:#34d399"></polygon>
    </g>
    <g>
      <g style="enable-background:new">
        <g>
          <polygon points="3111.532 732.923 3110.782 997.502 2882.047 1130.428 2882.798 865.849" style="fill:#fff;stroke:#0b1f3a;stroke-width:10.9375;stroke-linecap:round;stroke-linejoin:round;stroke-miterlimit:10"></polygon>
        </g>
        <g>
          <polygon points="2882.798 865.849 2882.047 1130.428 2651.817 997.505 2652.567 732.926" style="fill:#34d399;stroke:#0b1f3a;stroke-width:10.9375;stroke-linecap:round;stroke-linejoin:round;stroke-miterlimit:10"></polygon>
        </g>
        <g>
          <polygon points="3111.532 732.923 2882.798 865.849 2652.567 732.926 2881.302 600" style="fill:#fff;stroke:#0b1f3a;stroke-width:10.9375;stroke-linecap:round;stroke-linejoin:round;stroke-miterlimit:10"></polygon>
        </g>
      </g>
    </g>
    <g style="opacity:.2">
      <polygon points="1000.724 1170.145 800.992 1286.217 599.954 1170.147 799.686 1054.076" style="fill:#34d399"></polygon>
    </g>
    <g>
      <g style="enable-background:new">
        <g>
          <polygon points="1060.033 899.989 1059.378 1131.02 859.646 1247.091 860.301 1016.06" style="fill:#fff;stroke:#0b1f3a;stroke-width:10.9375;stroke-linecap:round;stroke-linejoin:round;stroke-miterlimit:10"></polygon>
        </g>
        <g>
          <polygon points="860.301 1016.06 859.646 1247.091 658.608 1131.022 659.263 899.991" style="fill:#34d399;stroke:#0b1f3a;stroke-width:10.9375;stroke-linecap:round;stroke-linejoin:round;stroke-miterlimit:10"></polygon>
        </g>
        <g>
          <polygon points="1060.033 899.989 860.301 1016.06 659.263 899.991 858.995 783.919" style="fill:#fff;stroke:#0b1f3a;stroke-width:10.9375;stroke-linecap:round;stroke-linejoin:round;stroke-miterlimit:10"></polygon>
        </g>
      </g>
    </g>
    <g>
      <g>
        <g>
          <path d="
					M3273.544,2123.761l-0.327,298.247c5.226,199.9-123.476,400.47-385.778,553.015c-2.287,1.308-4.573,2.616-7.187,3.924V2669.28
					c2.614-1.308,4.901-2.616,7.187-3.924C3144.843,2515.746,3273.544,2320.088,3273.544,2123.761z" style="fill:#fff;stroke:#0b1f3a;stroke-width:10.9375;stroke-linecap:round;stroke-linejoin:round;stroke-miterlimit:10"></path>
        </g>
        <path d="
				M2887.279,2665.52c-2.287,1.308-4.574,2.616-7.189,3.924l-280.32-161.73c2.612-1.308,4.899-2.6,7.187-3.908
				c363.961-211.391,362-555.096-4.248-766.471c-365.921-211.072-959.234-211.072-1322.868,0
				c-363.634,211.375-361.673,555.08,4.247,766.471c182.634,105.528,421.136,158.125,659.31,158.46v228.7
				c-339.13-0.67-678.587-75.808-937.672-225.446c-520.783-300.568-523.396-789.332-6.208-1089.916
				c517.19-300.568,1361.095-300.568,1881.551,0C3401.854,1876.188,3404.794,2364.952,2887.279,2665.52z" style="fill:#fff;stroke:#0b1f3a;stroke-width:10.9375;stroke-linecap:round;stroke-linejoin:round;stroke-miterlimit:10"></path>
        <polygon points="2599.77 2507.714 2880.09 2669.445 2880.09 2979.17 2599.77 2817.439" style="fill:#34d399;stroke:#0b1f3a;stroke-width:10.9375;stroke-linecap:round;stroke-linejoin:round;stroke-miterlimit:10"></polygon>
      </g>
      <g>
        <linearGradient id="SVGID_1_" x1="1008.319" x2="2878.641" y1="1928.049" y2="1928.049" gradientUnits="userSpaceOnUse">
          <stop offset="0" style="stop-color:#6ee7b7"></stop>
          <stop offset=".047" style="stop-color:#10b981"></stop>
          <stop offset=".181" style="stop-color:#10b981"></stop>
          <stop offset=".339" style="stop-color:#059669"></stop>
          <stop offset=".538" style="stop-color:#047857"></stop>
          <stop offset=".921" style="stop-color:#047857"></stop>
        </linearGradient>
        <path d="M2839.905,2277.068c-43.127-84.295-122.191-163.692-237.195-230.008
				c-365.921-211.391-959.234-211.391-1322.868,0c-112.717,65.343-190.148,143.751-232.621,226.738
				c-94.421-183.953-16.99-391.404,232.621-536.463c363.634-211.072,956.947-211.072,1322.868,0
				C2855.586,1883.048,2934.653,2092.142,2839.905,2277.068z" style="fill:url(#SVGID_1_)"></path>
      </g>
      <polygon points="2389.262 3044.893 2389.262 3166.643 1943.308 3400 1943.308 3171.181" style="opacity:.2;fill:#34d399"></polygon>
      <linearGradient id="SVGID_00000072242635829189851100000011618877510985672583_" x1="613.211" x2="2389.262" y1="2753.625" y2="2753.625" gradientUnits="userSpaceOnUse">
        <stop offset="0" style="stop-color:#6ee7b7"></stop>
        <stop offset=".047" style="stop-color:#10b981"></stop>
        <stop offset=".181" style="stop-color:#10b981"></stop>
        <stop offset=".339" style="stop-color:#059669"></stop>
        <stop offset=".538" style="stop-color:#047857"></stop>
        <stop offset=".921" style="stop-color:#047857"></stop>
      </linearGradient>
      <path d="M613.241,2120.615v301.541
			c-2.287,199.953,128.399,400.561,392.385,553.134c238.174,137.546,544.633,212.365,855.993,223.803l0.327,187.542l527.316-341.742
			l-528.297-341.758l0.327,186.234c-311.36-11.757-617.492-86.257-855.666-223.803
			C745.56,2515.273,614.549,2317.952,613.241,2120.615z" style="fill:url(#SVGID_00000072242635829189851100000011618877510985672583_)"></path>
      <g>
        <path d="
				M2839.905,2277.068c-43.127-84.295-122.191-163.692-237.195-230.008c-365.921-211.391-959.234-211.391-1322.868,0
				c-112.717,65.343-190.148,143.751-232.621,226.738c-94.421-183.953-16.99-391.404,232.621-536.463
				c363.634-211.072,956.947-211.072,1322.868,0C2855.586,1883.048,2934.653,2092.142,2839.905,2277.068z" style="fill:none;stroke:#0b1f3a;stroke-width:10.9375;stroke-linecap:round;stroke-linejoin:round;stroke-miterlimit:10"></path>
      </g>
      <path d="
			M613.241,2120.615v301.541c-2.287,199.953,128.399,400.561,392.385,553.134c238.174,137.546,544.633,212.365,855.993,223.803
			l0.327,187.542l527.316-341.742l-528.297-341.758l0.327,186.234c-311.36-11.757-617.492-86.257-855.666-223.803
			C745.56,2515.273,614.549,2317.952,613.241,2120.615z" style="fill:none;stroke:#0b1f3a;stroke-width:10.9375;stroke-linecap:round;stroke-linejoin:round;stroke-miterlimit:10"></path>
    </g>
    <g>
      <g>
        <g>
          <g style="enable-background:new">
            <g>
              <linearGradient id="SVGID_00000155849006135117295700000012167932780969417107_" x1="1297.106" x2="2067.466" y1="1460.81" y2="2763.419" gradientUnits="userSpaceOnUse">
                <stop offset="0" style="stop-color:#6ee7b7"></stop>
                <stop offset=".047" style="stop-color:#10b981"></stop>
                <stop offset=".181" style="stop-color:#10b981"></stop>
                <stop offset=".339" style="stop-color:#059669"></stop>
                <stop offset=".538" style="stop-color:#047857"></stop>
                <stop offset=".921" style="stop-color:#047857"></stop>
              </linearGradient>
              <polygon points="2040.402 1856.683 2037.928 2729.091 1278.78 2290.796 1281.253 1418.388" style="fill:url(#SVGID_00000155849006135117295700000012167932780969417107_)"></polygon>
            </g>
            <g>
              <polygon points="2040.402 1856.683 2037.928 2729.091 1278.78 2290.796 1281.253 1418.388" style="fill:none;stroke:#0b1f3a;stroke-width:10.9375;stroke-linecap:round;stroke-linejoin:round;stroke-miterlimit:10"></polygon>
            </g>
            <g>
              <polygon points="2794.618 1418.38 2792.145 2290.788 2037.928 2729.091 2040.402 1856.683" style="fill:#fff;stroke:#0b1f3a;stroke-width:10.9375;stroke-linecap:round;stroke-linejoin:round;stroke-miterlimit:10"></polygon>
            </g>
            <g>
              <polygon points="2794.618 1418.38 2040.402 1856.683 1281.253 1418.388 2035.47 980.086" style="fill:#fff;stroke:#0b1f3a;stroke-width:10.9375;stroke-linecap:round;stroke-linejoin:round;stroke-miterlimit:10"></polygon>
            </g>
          </g>
        </g>
      </g>
      <g>
        <g>
          <line x1="2415.037" x2="1660.82" y1="1199.229" y2="1637.532" style="fill:none;stroke:#0b1f3a;stroke-width:10.9375;stroke-linecap:round;stroke-linejoin:round;stroke-miterlimit:10"></line>
        </g>
      </g>
      <g>
        <path d="M1750.859,1805.717c25.859,14.93,46.815,51.228,46.73,81.073
				c-0.084,29.711-21.177,41.733-47.036,26.804l-230.032-132.809c-25.859-14.93-46.815-51.228-46.731-80.94
				c0.085-29.845,21.177-41.867,47.036-26.937L1750.859,1805.717z" style="fill:#fff"></path>
      </g>
      <g>
        <g>
          <g>
            <polygon points="1377.115 2071.144 1325.281 2111.708 1353.553 2128.031 1353.137 2274.64 1399.863 2301.617 1400.279 2155.009 1428.541 2171.325" style="fill:#fff"></polygon>
            <polygon points="1488.496 2166.48 1436.661 2207.044 1464.933 2223.367 1464.517 2339.517 1511.243 2366.494 1511.659 2250.344 1539.921 2266.661" style="fill:#fff"></polygon>
          </g>
        </g>
      </g>
    </g>
    <polygon points="2389.375 2831.543 1860.984 2489.706 1860.984 2703.099 2389.375 3044.937" style="fill:#fff;stroke:#0b1f3a;stroke-width:10.9375;stroke-linecap:round;stroke-linejoin:round;stroke-miterlimit:10"></polygon>
  </g>
</svg>