<svg xmlns="http://www.w3.org/2000/svg" viewBox="0 0 560 440" role="img" aria-label="Operating dashboard">
  <rect width="560" height="440" rx="16" fill="#eef2f7"/>
  <!-- window -->
  <rect x="28" y="28" width="504" height="384" rx="12" fill="#ffffff"/>
  <rect x="28" y="28" width="504" height="384" rx="12" fill="none" stroke="#e2e8f0"/>
  <!-- top bar -->
  <path d="M28 40 a12 12 0 0 1 12 -12 h480 a12 12 0 0 1 12 12 v24 H28 Z" fill="#0b1f3a"/>
  <circle cx="52" cy="46" r="5" fill="#34d399"/>
  <circle cx="70" cy="46" r="5" fill="#ffffff" opacity="0.35"/>
  <circle cx="88" cy="46" r="5" fill="#ffffff" opacity="0.35"/>
  <rect x="120" y="41" width="150" height="10" rx="5" fill="#ffffff" opacity="0.25"/>

  <!-- metric tiles -->
  <g>
    <rect x="52" y="88" width="140" height="78" rx="10" fill="#f8fafc" stroke="#e2e8f0"/>
    <rect x="68" y="104" width="44" height="8" rx="4" fill="#94a3b8"/>
    <rect x="68" y="122" width="70" height="16" rx="4" fill="#0b1f3a"/>
    <rect x="68" y="148" width="90" height="6" rx="3" fill="#10b981" opacity="0.5"/>
  </g>
  <g>
    <rect x="210" y="88" width="140" height="78" rx="10" fill="#f8fafc" stroke="#e2e8f0"/>
    <rect x="226" y="104" width="44" height="8" rx="4" fill="#94a3b8"/>
    <rect x="226" y="122" width="60" height="16" rx="4" fill="#0b1f3a"/>
    <rect x="226" y="148" width="72" height="6" rx="3" fill="#10b981" opacity="0.5"/>
  </g>
  <g>
    <rect x="368" y="88" width="140" height="78" rx="10" fill="#0b1f3a"/>
    <rect x="384" y="104" width="44" height="8" rx="4" fill="#64748b"/>
    <rect x="384" y="122" width="74" height="16" rx="4" fill="#34d399"/>
    <rect x="384" y="148" width="84" height="6" rx="3" fill="#ffffff" opacity="0.2"/>
  </g>

  <!-- line chart panel -->
  <g>
    <rect x="52" y="184" width="296" height="196" rx="10" fill="#f8fafc" stroke="#e2e8f0"/>
    <rect x="68" y="200" width="60" height="8" rx="4" fill="#94a3b8"/>
    <!-- gridlines -->
    <g stroke="#e2e8f0" stroke-width="1">
      <line x1="68" y1="248" x2="332" y2="248"/>
      <line x1="68" y1="292" x2="332" y2="292"/>
      <line x1="68" y1="336" x2="332" y2="336"/>
    </g>
    <!-- area + line -->
    <path d="M68 332 L112 300 L156 312 L200 268 L244 280 L288 236 L332 244 L332 360 L68 360 Z" fill="#10b981" opacity="0.12"/>
    <polyline points="68,332 112,300 156,312 200,268 244,280 288,236 332,244" fill="none" stroke="#10b981" stroke-width="3" stroke-linecap="round" stroke-linejoin="round"/>
    <g fill="#0b1f3a">
      <circle cx="200" cy="268" r="4"/>
      <circle cx="288" cy="236" r="4"/>
    </g>
  </g>

  <!-- bar chart panel -->
  <g>
    <rect x="368" y="184" width="140" height="196" rx="10" fill="#f8fafc" stroke="#e2e8f0"/>
    <rect x="384" y="200" width="50" height="8" rx="4" fill="#94a3b8"/>
    <g>
      <rect x="392" y="300" width="20" height="56" rx="4" fill="#0b1f3a"/>
      <rect x="420" y="276" width="20" height="80" rx="4" fill="#10b981"/>
      <rect x="448" y="312" width="20" height="44" rx="4" fill="#0b1f3a"/>
      <rect x="476" y="252" width="20" height="104" rx="4" fill="#10b981"/>
    </g>
  </g>
</svg>
